<?xml version="1.0" encoding="utf-8"?>
<!-- Generator: Adobe Illustrator 19.2.1, SVG Export Plug-In . SVG Version: 6.00 Build 0)  -->
<svg version="1.1" id="layer" xmlns="http://www.w3.org/2000/svg" xmlns:xlink="http://www.w3.org/1999/xlink" x="0px" y="0px"
	 viewBox="0 0 652 652" style="enable-background:new 0 0 652 652;" xml:space="preserve">
<style type="text/css">
	.st0{fill:#0055B8;}
	.st1{fill:#009BDE;}
</style>
<path class="st0" d="M50,565.7c-6.5-3.7-11.6-8.8-15.2-15.3c-3.6-6.5-5.4-13.6-5.4-21.4s1.8-14.9,5.4-21.3
	c3.6-6.4,8.7-11.4,15.2-15.2c6.5-3.7,13.9-5.6,22.3-5.6c9.8,0,18.4,2.6,25.7,7.8l-8.4,12.3c-4.9-4-10.6-6-17.1-6
	c-5.4,0-10.1,1.3-14.1,3.8c-4,2.5-7.1,5.9-9.3,10.2c-2.2,4.3-3.3,9-3.3,14c0,5,1.1,9.7,3.3,14c2.2,4.3,5.3,7.7,9.4,10.3
	c4.1,2.6,8.7,3.8,14,3.8c6.5,0,12.2-2.1,17.1-6.2l8.4,12.3c-7.4,5.3-15.9,7.9-25.7,7.9C63.9,571.3,56.5,569.4,50,565.7"/>
<polyline class="st0" points="134.8,502.1 134.8,523.1 164.1,523.1 164.1,535.3 134.8,535.3 134.8,556.4 170.4,556.4 170.4,569.5 
	118.9,569.5 118.9,489 170.4,489 170.4,502.1 "/>
<path class="st0" d="M215.2,536.8H210v32.7h-15.9V489H223c4.9,0,9.6,0.9,13.8,2.8c4.3,1.8,7.7,4.6,10.3,8.2c2.6,3.7,3.9,8,3.9,13
	c0,5.9-1.8,10.7-5.3,14.4c-3.6,3.7-8.3,6.4-14.1,8l26.4,34.1h-19.4 M210,525h9.7c4.8,0,8.5-1,11.1-3.1c2.6-2.1,3.9-4.9,3.9-8.6
	c0-3.8-1.4-6.8-4.1-8.9c-2.7-2.2-6.6-3.3-11.6-3.3H210V525z"/>
<rect x="274.7" y="489" class="st0" width="15.9" height="80.5"/>
<path class="st0" d="M367.6,494.2c6.5,3.5,11.5,8.3,15,14.3c3.4,6.1,5.2,12.9,5.2,20.6c0,7.7-1.7,14.6-5.2,20.8
	c-3.4,6.1-8.4,10.9-15,14.4c-6.5,3.5-14.3,5.2-23.3,5.2h-26.2V489h26.2C353.3,489,361,490.8,367.6,494.2 M363.8,549.3
	c5-4.8,7.5-11.5,7.5-20.1c0-8.5-2.5-15.1-7.5-19.9c-5-4.8-12.2-7.2-21.4-7.2H334v54.4h8.4C351.7,556.4,358.8,554,363.8,549.3"/>
<rect x="408.6" y="489" class="st0" width="15.9" height="80.5"/>
<path class="st0" d="M498.4,551H466l-6.5,18.5h-17.1l31.8-80.5h16.1l31.8,80.5H505 M494,539l-11.8-33.3L470.4,539H494z"/>
<polyline class="st0" points="610.7,489 610.7,569.5 596,569.5 556.4,513.9 556.4,569.5 541,569.5 541,489 555.7,489 595.4,544.6 
	595.4,489 "/>
<path class="st0" d="M339,378.1c-76.4,0-138.3-61.9-138.3-138.3S262.6,101.6,339,101.6c32.6,0,62.5,11.3,86.1,30.2l17.2-25.1
	C413.8,84.5,377.9,71.3,339,71.3c-93.1,0-168.6,75.5-168.6,168.6S245.9,408.5,339,408.5c38.6,0,74.1-13,102.5-34.8l-17-25.3
	C400.9,367,371.3,378.1,339,378.1"/>
<path class="st1" d="M200.8,239.9c0,76.4,61.9,138.3,138.3,138.3c32.3,0,61.9-11.2,85.5-29.7l-17-25.2
	c-18.6,15.3-42.5,24.5-68.5,24.5c-59.6,0-107.9-48.3-107.9-107.9c0-59.6,48.3-107.9,107.9-107.9c26.2,0,50.3,9.4,69,24.9l17.2-25.1
	c-23.6-18.9-53.5-30.2-86.1-30.2C262.6,101.6,200.8,163.5,200.8,239.9"/>
</svg>
