<svg width="5450" height="1613" viewBox="0 0 5450 1613" fill="none" xmlns="http://www.w3.org/2000/svg">
<path d="M1041.97 346.733C1212.76 346.733 1351.26 462.615 1351.26 605.526C1351.26 748.437 1212.76 864.319 1041.97 864.319H881.14V817.736H1041.97C1182.07 817.736 1295.59 722.749 1295.59 605.526C1295.59 488.302 1182.07 393.316 1041.97 393.316H881.14V346.733H1041.97Z" fill="#3067DB"/>
<path d="M1041.97 393.316C1182.07 393.316 1295.59 488.302 1295.59 605.526C1295.59 722.749 1182.07 817.736 1041.97 817.736H881.14V771.154H1041.97C1151.31 771.154 1239.91 697.013 1239.91 605.526C1239.91 514.038 1151.25 439.898 1041.97 439.898H881.14V393.316H1041.97Z" fill="#3982E8"/>
<path d="M1523.61 841.128V868.987H1544.99L1552.14 850.448L1523.61 841.128ZM1472.37 841.128L1443.95 831.525L1429.01 868.987H1472.37V841.128ZM1620.57 469.674V441.815H1599.44L1592.16 460.072L1620.57 469.674ZM1671.03 469.674L1699.44 460.072L1692.16 441.815H1671.03V469.674ZM1819.23 841.128V868.987H1862.6L1847.64 831.525L1819.23 841.128ZM1767.99 841.128L1739.46 850.448L1746.61 868.987H1767.99V841.128ZM1647.38 528.439L1675.9 519.12L1668.75 500.58L1649.89 497.533L1647.38 528.439ZM1644.22 528.439L1647.38 491.225L1622.85 500.58L1615.7 519.12L1644.22 528.439ZM1542.53 696.029V668.17H1512.26V696.029H1542.53ZM1749.07 696.029H1779.34V668.17H1749.07V696.029ZM1749.07 735.932V763.791H1779.34V735.932H1749.07ZM1542.53 735.932H1512.26V763.791H1542.53V735.932ZM1523.61 813.269H1472.37V868.987H1523.61V813.269ZM1500.79 850.731L1648.99 479.277L1592.16 460.072L1443.95 831.525L1500.79 850.731ZM1620.57 497.533H1645.8H1671.03V441.815H1620.57V497.533ZM1642.61 479.277L1790.81 850.731L1847.64 831.525L1699.44 460.072L1642.61 479.277ZM1819.23 813.269H1767.99V868.987H1819.23V813.269ZM1796.52 831.809L1675.9 519.12L1618.85 537.759L1739.46 850.448L1796.52 831.809ZM1649.89 497.533L1647.38 491.225L1644.22 528.439V556.298H1647.38L1649.89 497.533ZM1615.7 519.12L1495.08 831.809L1552.14 850.448L1672.75 537.759L1615.7 519.12ZM1542.53 723.888H1749.07V668.17H1542.53V723.888ZM1718.8 696.029V735.932H1779.34V696.029H1718.8ZM1749.07 708.073H1542.53V763.791H1749.07V708.073ZM1572.8 735.932V696.029H1512.26V735.932H1572.8ZM1917.22 469.674V441.815H1863.08L1891.43 484.262L1917.22 469.674ZM1973.19 469.674L1999.21 455.444L1990.41 441.815H1973.19V469.674ZM2085.13 643.068L2059.11 657.298L2067.91 670.927H2085.13V643.068ZM2089.86 643.068V670.927H2107.09L2115.89 657.298L2089.86 643.068ZM2201.8 469.674V441.815H2184.57L2175.78 455.444L2201.8 469.674ZM2257.77 469.674L2283.56 484.262L2311.91 441.815H2257.77V469.674ZM2111.93 688.048L2086.14 673.461L2081.66 680.172V688.048H2111.93ZM2111.93 841.128V868.987H2142.2V841.128H2111.93ZM2063.05 841.128H2032.78V868.987H2063.05V841.128ZM2063.05 688.048H2093.33V680.172L2088.85 673.461L2063.05 688.048ZM1917.22 497.533H1973.19V441.815H1917.22V497.533ZM1947.17 483.905L2059.11 657.298L2111.16 628.838L1999.21 455.444L1947.17 483.905ZM2085.13 670.927H2089.86V615.209H2085.13V670.927ZM2115.89 657.298L2227.82 483.905L2175.78 455.444L2063.83 628.838L2115.89 657.298ZM2201.8 497.533H2257.77V441.815H2201.8V497.533ZM2231.98 455.087L2086.14 673.461L2137.72 702.636L2283.56 484.262L2231.98 455.087ZM2081.66 688.048V841.128H2142.2V688.048H2081.66ZM2111.93 813.269H2063.05V868.987H2111.93V813.269ZM2093.33 841.128V688.048H2032.78V841.128H2093.33ZM2088.85 673.461L1943.01 455.087L1891.43 484.262L2037.26 702.636L2088.85 673.461ZM2431.98 841.128H2401.71V868.987H2431.98V841.128ZM2431.98 469.674V441.815H2401.71V469.674H2431.98ZM2673.99 469.674H2704.26V441.815H2673.99V469.674ZM2673.99 509.577V537.436H2704.26V509.577H2673.99ZM2480.86 509.577V481.718H2450.59V509.577H2480.86ZM2480.86 635.087H2450.59V662.947H2480.86V635.087ZM2655.86 635.087H2686.13V607.228H2655.86V635.087ZM2655.86 674.99V702.849H2686.13V674.99H2655.86ZM2480.86 674.99V647.131H2450.59V674.99H2480.86ZM2480.86 841.128V868.987H2511.13V841.128H2480.86ZM2462.25 841.128V469.674H2401.71V841.128H2462.25ZM2431.98 497.533H2673.99V441.815H2431.98V497.533ZM2643.72 469.674V509.577H2704.26V469.674H2643.72ZM2673.99 481.718H2480.86V537.436H2673.99V481.718ZM2450.59 509.577V635.087H2511.13V509.577H2450.59ZM2480.86 662.947H2655.86V607.228H2480.86V662.947ZM2625.59 635.087V674.99H2686.13V635.087H2625.59ZM2655.86 647.131H2480.86V702.849H2655.86V647.131ZM2450.59 674.99V841.128H2511.13V674.99H2450.59ZM2480.86 813.269H2431.98V868.987H2480.86V813.269ZM3144.41 573.965L3117.14 586.038L3117.17 586.094L3117.19 586.148L3144.41 573.965ZM3097.31 523.724L3081.23 547.331L3081.27 547.353L3081.32 547.374L3097.31 523.724ZM2964.68 523.724L2948.68 500.073L2948.65 500.095L2948.61 500.117L2964.68 523.724ZM2917.58 573.965L2890.35 561.78L2890.32 561.836L2890.29 561.892L2917.58 573.965ZM2917.58 736.838L2890.29 748.911L2890.32 748.967L2890.35 749.023L2917.58 736.838ZM2964.68 787.079L2948.61 810.686L2948.65 810.708L2948.68 810.73L2964.68 787.079ZM3097.31 787.079L3081.32 763.429L3081.27 763.45L3081.23 763.472L3097.31 787.079ZM3144.41 736.838L3117.19 724.654L3117.17 724.709L3117.14 724.765L3144.41 736.838ZM3178.98 655.401C3178.98 691.254 3171.95 720.69 3159.07 744.597L3213.32 769.345C3231.18 736.18 3239.52 697.902 3239.52 655.401H3178.98ZM3159.07 744.597C3145.94 768.972 3128.48 786.902 3106.84 799.393L3139.02 846.59C3171 828.126 3195.7 802.041 3213.32 769.345L3159.07 744.597ZM3106.84 799.393C3085.28 811.842 3060.35 818.348 3031.09 818.348V874.066C3070.69 874.066 3106.98 865.095 3139.02 846.59L3106.84 799.393ZM3031.09 818.348C3001.84 818.348 2976.9 811.842 2955.35 799.393L2923.17 846.59C2955.21 865.095 2991.5 874.066 3031.09 874.066V818.348ZM2955.35 799.393C2933.71 786.902 2916.24 768.972 2903.12 744.597L2848.87 769.345C2866.48 802.041 2891.19 828.126 2923.17 846.59L2955.35 799.393ZM2903.12 744.597C2890.23 720.69 2883.21 691.254 2883.21 655.401H2822.67C2822.67 697.902 2831 736.18 2848.87 769.345L2903.12 744.597ZM2883.21 655.401C2883.21 619.549 2890.23 590.113 2903.12 566.206L2848.87 541.458C2831 574.623 2822.67 612.901 2822.67 655.401H2883.21ZM2903.12 566.206C2916.24 541.83 2933.71 523.901 2955.35 511.41L2923.17 464.213C2891.19 482.677 2866.48 508.762 2848.87 541.458L2903.12 566.206ZM2955.35 511.41C2976.9 498.961 3001.84 492.455 3031.09 492.455V436.737C2991.5 436.737 2955.21 445.709 2923.17 464.213L2955.35 511.41ZM3031.09 492.455C3060.35 492.455 3085.28 498.961 3106.84 511.41L3139.02 464.213C3106.98 445.709 3070.69 436.737 3031.09 436.737V492.455ZM3106.84 511.41C3128.48 523.901 3145.94 541.83 3159.07 566.206L3213.32 541.458C3195.7 508.762 3171 482.677 3139.02 464.213L3106.84 511.41ZM3159.07 566.206C3171.95 590.113 3178.98 619.549 3178.98 655.401H3239.52C3239.52 612.901 3231.18 574.623 3213.32 541.458L3159.07 566.206ZM3192.23 655.401C3192.23 620.262 3185.85 588.685 3171.64 561.78L3117.19 586.148C3126.36 603.5 3131.69 626.213 3131.69 655.401H3192.23ZM3171.7 561.892C3158 535.689 3138.69 514.614 3113.31 500.073L3081.32 547.374C3095.61 555.566 3107.7 567.984 3117.14 586.038L3171.7 561.892ZM3113.38 500.117C3088.61 485.828 3060.91 478.816 3031.09 478.816V534.534C3050.15 534.534 3066.59 538.887 3081.23 547.331L3113.38 500.117ZM3031.09 478.816C3001.27 478.816 2973.55 485.828 2948.68 500.073L2980.67 547.374C2995.49 538.888 3012.04 534.534 3031.09 534.534V478.816ZM2948.61 500.117C2923.41 514.649 2904.15 535.676 2890.35 561.78L2944.8 586.148C2954.39 567.997 2966.54 555.53 2980.75 547.331L2948.61 500.117ZM2890.29 561.892C2876.26 588.765 2869.96 620.301 2869.96 655.401H2930.5C2930.5 626.174 2935.77 603.419 2944.86 586.038L2890.29 561.892ZM2869.96 655.401C2869.96 690.502 2876.26 722.037 2890.29 748.911L2944.86 724.765C2935.77 707.384 2930.5 684.628 2930.5 655.401H2869.96ZM2890.35 749.023C2904.15 775.127 2923.41 796.154 2948.61 810.686L2980.75 763.472C2966.54 755.272 2954.39 742.805 2944.8 724.654L2890.35 749.023ZM2948.68 810.73C2973.55 824.975 3001.27 831.987 3031.09 831.987V776.269C3012.04 776.269 2995.49 771.914 2980.67 763.429L2948.68 810.73ZM3031.09 831.987C3060.91 831.987 3088.61 824.975 3113.38 810.686L3081.23 763.472C3066.59 771.915 3050.15 776.269 3031.09 776.269V831.987ZM3113.31 810.73C3138.69 796.189 3158 775.114 3171.7 748.911L3117.14 724.765C3107.7 742.818 3095.61 755.237 3081.32 763.429L3113.31 810.73ZM3171.64 749.023C3185.85 722.118 3192.23 690.541 3192.23 655.401H3131.69C3131.69 684.589 3126.36 707.303 3117.19 724.654L3171.64 749.023ZM3402.43 841.128H3372.16V868.987H3402.43V841.128ZM3402.43 469.674V441.815H3372.16V469.674H3402.43ZM3616.46 484.547L3602.24 509.138L3602.3 509.17L3602.37 509.204L3616.46 484.547ZM3616.66 681.7L3630.55 706.455L3630.61 706.422L3630.68 706.388L3616.66 681.7ZM3429.23 696.029H3398.96V723.888H3429.23V696.029ZM3429.23 655.401V627.542H3398.96V655.401H3429.23ZM3590.05 646.695L3577.06 621.533L3577 621.556L3576.95 621.58L3590.05 646.695ZM3618.83 622.028L3591.93 609.237L3591.9 609.291L3591.87 609.345L3618.83 622.028ZM3589.86 518.827L3576.21 543.695L3576.31 543.745L3576.42 543.794L3589.86 518.827ZM3451.3 509.577V481.718H3421.03V509.577H3451.3ZM3451.3 841.128V868.987H3481.57V841.128H3451.3ZM3592.42 674.264L3618.97 660.879L3610.35 646.405H3592.42V674.264ZM3691.75 841.128V868.987H3742.85L3718.3 827.743L3691.75 841.128ZM3634.99 841.128L3608.34 854.349L3616.92 868.987H3634.99V841.128ZM3537.23 674.264V646.405H3486.52L3510.58 687.485L3537.23 674.264ZM3432.71 841.128V469.674H3372.16V841.128H3432.71ZM3402.43 497.533H3538.81V441.815H3402.43V497.533ZM3538.81 497.533C3567.15 497.533 3587.72 502.022 3602.24 509.138L3630.69 459.957C3604.74 447.242 3573.54 441.815 3538.81 441.815V497.533ZM3602.37 509.204C3617.64 516.597 3627.93 526.168 3634.55 537.868L3688.24 512.119C3675.42 489.479 3655.75 472.085 3630.55 459.891L3602.37 509.204ZM3634.55 537.868C3641.74 550.571 3645.71 565.584 3645.71 583.577H3706.25C3706.25 557.799 3700.49 533.757 3688.24 512.119L3634.55 537.868ZM3645.71 583.577C3645.71 601.58 3641.74 616.404 3634.63 628.779L3688.16 654.817C3700.5 633.336 3706.25 609.347 3706.25 583.577H3645.71ZM3634.63 628.779C3628.03 640.269 3617.82 649.706 3602.63 657.013L3630.68 706.388C3655.71 694.349 3675.31 677.183 3688.16 654.817L3634.63 628.779ZM3602.77 656.947C3588.28 663.831 3567.79 668.17 3539.59 668.17V723.888C3573.95 723.888 3604.83 718.676 3630.55 706.455L3602.77 656.947ZM3539.59 668.17H3429.23V723.888H3539.59V668.17ZM3459.51 696.029V655.401H3398.96V696.029H3459.51ZM3429.23 683.26H3538.02V627.542H3429.23V683.26ZM3538.02 683.26C3562.12 683.26 3584.45 680.074 3603.15 671.811L3576.95 621.58C3569.38 624.925 3557.03 627.542 3538.02 627.542V683.26ZM3603.04 671.858C3621.5 663.784 3636.43 651.521 3645.78 634.712L3591.87 609.345C3589.39 613.817 3585.14 617.999 3577.06 621.533L3603.04 671.858ZM3645.72 634.82C3654.43 619.303 3658.16 601.903 3658.16 583.577H3597.62C3597.62 594.997 3595.3 603.231 3591.93 609.237L3645.72 634.82ZM3658.16 583.577C3658.16 565.219 3654.41 547.802 3645.9 532.123L3591.75 557.04C3595.31 563.61 3597.62 572.19 3597.62 583.577H3658.16ZM3645.9 532.123C3636.62 515.048 3621.86 502.324 3603.29 493.86L3576.42 543.794C3584.39 547.421 3588.94 551.866 3591.75 557.04L3645.9 532.123ZM3603.5 493.958C3584.49 485.123 3561.73 481.718 3537.23 481.718V537.436C3556.35 537.436 3568.69 540.197 3576.21 543.695L3603.5 493.958ZM3537.23 481.718H3451.3V537.436H3537.23V481.718ZM3421.03 509.577V841.128H3481.57V509.577H3421.03ZM3451.3 813.269H3402.43V868.987H3451.3V813.269ZM3565.87 687.649L3665.19 854.514L3718.3 827.743L3618.97 660.879L3565.87 687.649ZM3691.75 813.269H3634.99V868.987H3691.75V813.269ZM3661.63 827.907L3563.88 661.044L3510.58 687.485L3608.34 854.349L3661.63 827.907ZM3537.23 702.124H3592.42V646.405H3537.23V702.124ZM4193.21 585.754V613.613H4229.31L4223.01 580.892L4193.21 585.754ZM4144.33 585.754L4114.68 591.365L4119.65 613.613H4144.33V585.754ZM4129.15 551.655L4103.97 567.109L4104.04 567.207L4104.11 567.305L4129.15 551.655ZM4103.14 526.989L4085.34 549.519L4085.51 549.639L4085.69 549.756L4103.14 526.989ZM3964.39 523.724L3948.4 500.073L3948.36 500.095L3948.32 500.117L3964.39 523.724ZM3917.29 573.965L3890.07 561.78L3890.04 561.836L3890.01 561.892L3917.29 573.965ZM3917.29 736.838L3890.01 748.911L3890.04 748.967L3890.07 749.023L3917.29 736.838ZM3964.39 787.079L3948.32 810.686L3948.36 810.708L3948.4 810.73L3964.39 787.079ZM4103.14 783.996L4120.74 806.666L4120.77 806.645L4120.8 806.626L4103.14 783.996ZM4129.15 759.148L4104.02 743.629L4103.99 743.662L4103.97 743.694L4129.15 759.148ZM4144.33 725.049V697.19H4119.7L4114.69 719.388L4144.33 725.049ZM4193.21 725.049L4223 729.94L4229.35 697.19H4193.21V725.049ZM4136.84 814.285L4155.49 836.233L4155.55 836.184L4155.62 836.136L4136.84 814.285ZM4088.16 838.045L4078.71 811.577L4078.68 811.587L4078.65 811.596L4088.16 838.045ZM4088.16 472.758L4078.65 499.207L4078.68 499.216L4078.71 499.225L4088.16 472.758ZM4136.84 496.7L4118.06 518.55L4118.12 518.599L4118.19 518.647L4136.84 496.7ZM4173.11 534.787L4147.11 549.064L4147.13 549.107L4147.16 549.15L4173.11 534.787ZM4193.21 557.895H4144.33V613.613H4193.21V557.895ZM4173.98 580.143C4170.38 564.028 4163.9 549.166 4154.2 536.006L4104.11 567.305C4108.85 573.733 4112.49 581.604 4114.68 591.365L4173.98 580.143ZM4154.34 536.202C4145.22 523.609 4133.94 512.889 4120.58 504.221L4085.69 549.756C4092.84 554.389 4098.9 560.113 4103.97 567.109L4154.34 536.202ZM4120.95 504.458C4107.97 495.773 4093.62 489.313 4078.08 485.054L4060.8 538.453C4069.96 540.965 4078.07 544.662 4085.34 549.519L4120.95 504.458ZM4078.08 485.054C4062.82 480.869 4047.02 478.816 4030.81 478.816V534.534C4041.4 534.534 4051.36 535.867 4060.8 538.453L4078.08 485.054ZM4030.81 478.816C4000.99 478.816 3973.26 485.828 3948.4 500.073L3980.39 547.374C3995.21 538.888 4011.76 534.534 4030.81 534.534V478.816ZM3948.32 500.117C3923.12 514.649 3903.86 535.676 3890.07 561.78L3944.52 586.148C3954.11 567.997 3966.25 555.53 3980.47 547.331L3948.32 500.117ZM3890.01 561.892C3875.97 588.765 3869.67 620.301 3869.67 655.401H3930.22C3930.22 626.174 3935.49 603.419 3944.58 586.038L3890.01 561.892ZM3869.67 655.401C3869.67 690.502 3875.97 722.037 3890.01 748.911L3944.58 724.765C3935.49 707.384 3930.22 684.628 3930.22 655.401H3869.67ZM3890.07 749.023C3903.86 775.127 3923.12 796.154 3948.32 810.686L3980.47 763.472C3966.25 755.272 3954.11 742.805 3944.52 724.654L3890.07 749.023ZM3948.4 810.73C3973.26 824.975 4000.99 831.987 4030.81 831.987V776.269C4011.76 776.269 3995.21 771.914 3980.39 763.429L3948.4 810.73ZM4030.81 831.987C4047.02 831.987 4062.82 829.934 4078.08 825.749L4060.8 772.35C4051.36 774.936 4041.4 776.269 4030.81 776.269V831.987ZM4078.08 825.749C4093.52 821.517 4107.8 815.17 4120.74 806.666L4085.54 761.326C4078.24 766.122 4070.06 769.811 4060.8 772.35L4078.08 825.749ZM4120.8 806.626C4134.04 797.872 4145.26 787.146 4154.34 774.601L4103.97 743.694C4098.86 750.738 4092.73 756.577 4085.48 761.365L4120.8 806.626ZM4154.3 774.666C4163.9 761.487 4170.36 746.708 4173.96 730.711L4114.69 719.388C4112.51 729.024 4108.86 736.977 4104.02 743.629L4154.3 774.666ZM4144.33 752.908H4193.21V697.19H4144.33V752.908ZM4163.4 720.158C4160.3 736.172 4154.77 749.922 4147.11 761.738L4199.1 790.292C4210.88 772.121 4218.75 751.893 4223 729.94L4163.4 720.158ZM4147.11 761.738C4139.21 773.913 4129.54 784.077 4118.06 792.434L4155.62 836.136C4173.04 823.454 4187.54 808.105 4199.1 790.292L4147.11 761.738ZM4118.19 792.338C4106.59 800.686 4093.5 807.109 4078.71 811.577L4097.61 864.513C4118.82 858.099 4138.18 848.681 4155.49 836.233L4118.19 792.338ZM4078.65 811.596C4064.09 816.03 4048.21 818.348 4030.81 818.348V874.066C4054.14 874.066 4076.49 870.943 4097.67 864.494L4078.65 811.596ZM4030.81 818.348C4001.56 818.348 3976.62 811.842 3955.06 799.393L3922.88 846.59C3954.93 865.095 3991.21 874.066 4030.81 874.066V818.348ZM3955.06 799.393C3933.43 786.902 3915.96 768.972 3902.83 744.597L3848.59 769.345C3866.2 802.041 3890.91 828.126 3922.88 846.59L3955.06 799.393ZM3902.83 744.597C3889.96 720.69 3882.92 691.254 3882.92 655.401H3822.38C3822.38 697.902 3830.72 736.18 3848.59 769.345L3902.83 744.597ZM3882.92 655.401C3882.92 619.549 3889.96 590.113 3902.83 566.206L3848.59 541.458C3830.72 574.623 3822.38 612.901 3822.38 655.401H3882.92ZM3902.83 566.206C3915.96 541.83 3933.43 523.901 3955.06 511.41L3922.88 464.213C3890.91 482.677 3866.2 508.762 3848.59 541.458L3902.83 566.206ZM3955.06 511.41C3976.62 498.961 4001.56 492.455 4030.81 492.455V436.737C3991.21 436.737 3954.93 445.709 3922.88 464.213L3955.06 511.41ZM4030.81 492.455C4048.21 492.455 4064.09 494.773 4078.65 499.207L4097.67 446.309C4076.49 439.86 4054.14 436.737 4030.81 436.737V492.455ZM4078.71 499.225C4093.43 503.674 4106.48 510.119 4118.06 518.55L4155.62 474.848C4138.29 462.239 4118.89 452.724 4097.61 446.29L4078.71 499.225ZM4118.19 518.647C4129.61 526.855 4139.23 536.921 4147.11 549.064L4199.1 520.511C4187.52 502.668 4172.98 487.341 4155.49 474.751L4118.19 518.647ZM4147.16 549.15C4154.76 560.775 4160.29 574.475 4163.4 590.615L4223.01 580.892C4218.76 558.823 4210.88 538.545 4199.04 520.426L4147.16 549.15ZM4383.18 841.128H4352.91V868.987H4383.18V841.128ZM4383.18 469.674V441.815H4352.91V469.674H4383.18ZM4626.77 469.674H4657.04V441.815H4626.77V469.674ZM4626.77 509.577V537.436H4657.04V509.577H4626.77ZM4432.06 509.577V481.718H4401.79V509.577H4432.06ZM4432.06 635.087H4401.79V662.947H4432.06V635.087ZM4614.16 635.087H4644.43V607.228H4614.16V635.087ZM4614.16 674.99V702.849H4644.43V674.99H4614.16ZM4432.06 674.99V647.131H4401.79V674.99H4432.06ZM4432.06 801.226H4401.79V829.085H4432.06V801.226ZM4629.92 801.226H4660.19V773.367H4629.92V801.226ZM4629.92 841.128V868.987H4660.19V841.128H4629.92ZM4413.45 841.128V469.674H4352.91V841.128H4413.45ZM4383.18 497.533H4626.77V441.815H4383.18V497.533ZM4596.5 469.674V509.577H4657.04V469.674H4596.5ZM4626.77 481.718H4432.06V537.436H4626.77V481.718ZM4401.79 509.577V635.087H4462.33V509.577H4401.79ZM4432.06 662.947H4614.16V607.228H4432.06V662.947ZM4583.89 635.087V674.99H4644.43V635.087H4583.89ZM4614.16 647.131H4432.06V702.849H4614.16V647.131ZM4401.79 674.99V801.226H4462.33V674.99H4401.79ZM4432.06 829.085H4629.92V773.367H4432.06V829.085ZM4599.65 801.226V841.128H4660.19V801.226H4599.65ZM4629.92 813.269H4383.18V868.987H4629.92V813.269Z" fill="#3067DB"/>
<path d="M1098.27 1456.4H1020.93L1161.75 1056.4H1251.2L1392.22 1456.4H1314.88L1208.04 1138.43H1204.91L1098.27 1456.4ZM1100.81 1299.56H1311.75V1357.76H1100.81V1299.56ZM1878.49 1191.36H1805.44C1803.36 1179.38 1799.52 1168.77 1793.92 1159.52C1788.32 1150.15 1781.35 1142.2 1773.02 1135.69C1764.69 1129.18 1755.18 1124.3 1744.5 1121.05C1733.96 1117.66 1722.56 1115.97 1710.32 1115.97C1688.58 1115.97 1669.31 1121.44 1652.51 1132.37C1635.72 1143.18 1622.56 1159.07 1613.06 1180.03C1603.55 1200.86 1598.8 1226.32 1598.8 1256.4C1598.8 1287 1603.55 1312.78 1613.06 1333.74C1622.69 1354.57 1635.85 1370.33 1652.51 1381.01C1669.31 1391.55 1688.52 1396.83 1710.13 1396.83C1722.11 1396.83 1733.31 1395.26 1743.72 1392.14C1754.27 1388.88 1763.71 1384.13 1772.04 1377.88C1780.51 1371.63 1787.6 1363.95 1793.33 1354.84C1799.19 1345.72 1803.23 1335.3 1805.44 1323.59L1878.49 1323.98C1875.75 1342.99 1869.83 1360.82 1860.72 1377.49C1851.73 1394.16 1839.95 1408.87 1825.36 1421.63C1810.78 1434.26 1793.72 1444.16 1774.19 1451.32C1754.66 1458.35 1732.98 1461.87 1709.15 1461.87C1674 1461.87 1642.62 1453.73 1615.01 1437.45C1587.41 1421.18 1565.66 1397.67 1549.78 1366.94C1533.89 1336.22 1525.95 1299.37 1525.95 1256.4C1525.95 1213.3 1533.96 1176.45 1549.97 1145.85C1565.99 1115.12 1587.8 1091.62 1615.4 1075.34C1643.01 1059.07 1674.26 1050.93 1709.15 1050.93C1731.42 1050.93 1752.12 1054.05 1771.26 1060.3C1790.4 1066.55 1807.46 1075.73 1822.43 1087.84C1837.41 1099.82 1849.71 1114.54 1859.35 1131.98C1869.11 1149.3 1875.49 1169.09 1878.49 1191.36ZM2101.38 1456.4H2024.04L2164.86 1056.4H2254.31L2395.33 1456.4H2317.98L2211.15 1138.43H2208.02L2101.38 1456.4ZM2103.92 1299.56H2314.86V1357.76H2103.92V1299.56ZM2693.56 1456.4H2558.01V1056.4H2696.29C2736.01 1056.4 2770.12 1064.41 2798.64 1080.42C2827.28 1096.31 2849.29 1119.16 2864.65 1148.98C2880.02 1178.79 2887.7 1214.47 2887.7 1256.01C2887.7 1297.67 2879.95 1333.48 2864.46 1363.43C2849.09 1393.38 2826.89 1416.36 2797.85 1432.37C2768.95 1448.39 2734.18 1456.4 2693.56 1456.4ZM2630.47 1393.7H2690.04C2717.91 1393.7 2741.15 1388.62 2759.77 1378.47C2778.39 1368.18 2792.39 1352.88 2801.76 1332.57C2811.14 1312.13 2815.82 1286.61 2815.82 1256.01C2815.82 1225.41 2811.14 1200.02 2801.76 1179.84C2792.39 1159.52 2778.52 1144.35 2760.16 1134.33C2741.93 1124.17 2719.27 1119.09 2692.19 1119.09H2630.47V1393.7ZM3066.55 1456.4V1056.4H3326.7V1117.14H3139.01V1225.73H3313.23V1286.48H3139.01V1395.66H3328.26V1456.4H3066.55ZM3510.63 1056.4H3599.3L3718.05 1346.24H3722.74L3841.49 1056.4H3930.16V1456.4H3860.63V1181.59H3856.92L3746.37 1455.23H3694.42L3583.87 1181.01H3580.16V1456.4H3510.63V1056.4ZM4091.72 1056.4H4173.56L4271.41 1233.35H4275.32L4373.17 1056.4H4455L4309.5 1307.18V1456.4H4237.23V1307.18L4091.72 1056.4Z" fill="#3067DB"/>
<path d="M1098.27 1456.4V1478.4H1114.1L1119.13 1463.39L1098.27 1456.4ZM1020.93 1456.4L1000.18 1449.09L989.862 1478.4H1020.93V1456.4ZM1161.75 1056.4V1034.4H1146.17L1141 1049.09L1161.75 1056.4ZM1251.2 1056.4L1271.95 1049.08L1266.78 1034.4H1251.2V1056.4ZM1392.22 1456.4V1478.4H1423.3L1412.97 1449.08L1392.22 1456.4ZM1314.88 1456.4L1294.02 1463.4L1299.06 1478.4H1314.88V1456.4ZM1208.04 1138.43L1228.89 1131.42L1223.86 1116.43H1208.04V1138.43ZM1204.91 1138.43V1116.43H1189.09L1184.06 1131.43L1204.91 1138.43ZM1100.81 1299.56V1277.56H1078.81V1299.56H1100.81ZM1311.75 1299.56H1333.75V1277.56H1311.75V1299.56ZM1311.75 1357.76V1379.76H1333.75V1357.76H1311.75ZM1100.81 1357.76H1078.81V1379.76H1100.81V1357.76ZM1098.27 1434.4H1020.93V1478.4H1098.27V1434.4ZM1041.68 1463.7L1182.5 1063.7L1141 1049.09L1000.18 1449.09L1041.68 1463.7ZM1161.75 1078.4H1251.2V1034.4H1161.75V1078.4ZM1230.46 1063.71L1371.47 1463.71L1412.97 1449.08L1271.95 1049.08L1230.46 1063.71ZM1392.22 1434.4H1314.88V1478.4H1392.22V1434.4ZM1335.73 1449.39L1228.89 1131.42L1187.19 1145.44L1294.02 1463.4L1335.73 1449.39ZM1208.04 1116.43H1204.91V1160.43H1208.04V1116.43ZM1184.06 1131.43L1077.42 1449.4L1119.13 1463.39L1225.77 1145.42L1184.06 1131.43ZM1100.81 1321.56H1311.75V1277.56H1100.81V1321.56ZM1289.75 1299.56V1357.76H1333.75V1299.56H1289.75ZM1311.75 1335.76H1100.81V1379.76H1311.75V1335.76ZM1122.81 1357.76V1299.56H1078.81V1357.76H1122.81ZM1878.49 1191.36V1213.36H1903.65L1900.29 1188.43L1878.49 1191.36ZM1805.44 1191.36L1783.77 1195.13L1786.94 1213.36H1805.44V1191.36ZM1793.92 1159.52L1775.03 1170.8L1775.07 1170.86L1775.1 1170.92L1793.92 1159.52ZM1773.02 1135.69L1786.56 1118.36L1786.56 1118.36L1773.02 1135.69ZM1744.5 1121.05L1737.78 1141.99L1737.93 1142.04L1738.09 1142.09L1744.5 1121.05ZM1652.51 1132.37L1664.42 1150.88L1664.47 1150.84L1664.52 1150.81L1652.51 1132.37ZM1613.06 1180.03L1633.07 1189.16L1633.09 1189.14L1633.1 1189.12L1613.06 1180.03ZM1613.06 1333.74L1593.02 1342.83L1593.06 1342.9L1593.09 1342.98L1613.06 1333.74ZM1652.51 1381.01L1640.65 1399.53L1640.73 1399.59L1640.81 1399.64L1652.51 1381.01ZM1743.72 1392.14L1750.05 1413.21L1750.13 1413.19L1750.21 1413.16L1743.72 1392.14ZM1772.04 1377.88L1758.97 1360.18L1758.91 1360.23L1758.84 1360.28L1772.04 1377.88ZM1793.33 1354.84L1774.83 1342.94L1774.77 1343.03L1774.71 1343.13L1793.33 1354.84ZM1805.44 1323.59L1805.56 1301.59L1787.23 1301.49L1783.82 1319.5L1805.44 1323.59ZM1878.49 1323.98L1900.26 1327.11L1903.86 1302.11L1878.61 1301.98L1878.49 1323.98ZM1860.72 1377.49L1841.41 1366.94L1841.38 1366.99L1841.35 1367.05L1860.72 1377.49ZM1825.36 1421.63L1839.77 1438.26L1839.81 1438.23L1839.85 1438.19L1825.36 1421.63ZM1774.19 1451.32L1781.64 1472.02L1781.7 1472L1781.77 1471.97L1774.19 1451.32ZM1615.01 1437.45L1626.19 1418.5L1626.19 1418.5L1615.01 1437.45ZM1549.78 1366.94L1530.23 1377.05L1530.23 1377.05L1549.78 1366.94ZM1549.97 1145.85L1569.46 1156.05L1569.47 1156.04L1569.48 1156.02L1549.97 1145.85ZM1615.4 1075.34L1604.23 1056.39L1604.23 1056.39L1615.4 1075.34ZM1771.26 1060.3L1778.09 1039.39L1778.09 1039.39L1771.26 1060.3ZM1822.43 1087.84L1808.6 1104.95L1808.65 1104.99L1808.69 1105.02L1822.43 1087.84ZM1859.35 1131.98L1840.09 1142.62L1840.14 1142.7L1840.19 1142.79L1859.35 1131.98ZM1878.49 1169.36H1805.44V1213.36H1878.49V1169.36ZM1827.12 1187.59C1824.62 1173.25 1819.92 1159.99 1812.74 1148.13L1775.1 1170.92C1779.11 1177.55 1782.1 1185.51 1783.77 1195.13L1827.12 1187.59ZM1812.81 1148.24C1805.86 1136.61 1797.11 1126.59 1786.56 1118.36L1759.48 1153.03C1765.6 1157.82 1770.78 1163.68 1775.03 1170.8L1812.81 1148.24ZM1786.56 1118.36C1775.99 1110.09 1764.04 1104 1750.92 1100L1738.09 1142.09C1746.33 1144.6 1753.39 1148.27 1759.48 1153.03L1786.56 1118.36ZM1751.23 1100.1C1738.29 1095.95 1724.61 1093.97 1710.32 1093.97V1137.97C1720.52 1137.97 1729.62 1139.37 1737.78 1141.99L1751.23 1100.1ZM1710.32 1093.97C1684.69 1093.97 1661.18 1100.48 1640.51 1113.94L1664.52 1150.81C1677.44 1142.4 1692.47 1137.97 1710.32 1137.97V1093.97ZM1640.61 1113.87C1619.73 1127.3 1604 1146.73 1593.02 1170.95L1633.1 1189.12C1641.13 1171.41 1651.7 1159.06 1664.42 1150.88L1640.61 1113.87ZM1593.04 1170.9C1581.89 1195.35 1576.8 1224.11 1576.8 1256.4H1620.8C1620.8 1228.53 1625.22 1206.38 1633.07 1189.16L1593.04 1170.9ZM1576.8 1256.4C1576.8 1289.15 1581.87 1318.23 1593.02 1342.83L1633.1 1324.66C1625.24 1307.32 1620.8 1284.84 1620.8 1256.4H1576.8ZM1593.09 1342.98C1604.2 1366.99 1619.91 1386.25 1640.65 1399.53L1664.38 1362.48C1651.78 1354.41 1641.19 1342.15 1633.03 1324.51L1593.09 1342.98ZM1640.81 1399.64C1661.43 1412.58 1684.76 1418.83 1710.13 1418.83V1374.83C1692.27 1374.83 1677.19 1370.52 1664.21 1362.38L1640.81 1399.64ZM1710.13 1418.83C1724.03 1418.83 1737.38 1417.01 1750.05 1413.21L1737.4 1371.07C1729.23 1373.52 1720.18 1374.83 1710.13 1374.83V1418.83ZM1750.21 1413.16C1763.03 1409.2 1774.77 1403.34 1785.24 1395.48L1758.84 1360.28C1752.65 1364.93 1745.51 1368.56 1737.24 1371.12L1750.21 1413.16ZM1785.11 1395.58C1795.84 1387.66 1804.8 1377.93 1811.96 1366.54L1774.71 1343.13C1770.4 1349.97 1765.18 1355.6 1758.97 1360.18L1785.11 1395.58ZM1811.84 1366.73C1819.38 1355.01 1824.37 1341.89 1827.06 1327.67L1783.82 1319.5C1782.08 1328.72 1779.01 1336.43 1774.83 1342.94L1811.84 1366.73ZM1805.32 1345.58L1878.37 1345.98L1878.61 1301.98L1805.56 1301.59L1805.32 1345.58ZM1856.71 1320.84C1854.35 1337.28 1849.25 1352.6 1841.41 1366.94L1880.02 1388.05C1890.41 1369.05 1897.16 1348.69 1900.26 1327.11L1856.71 1320.84ZM1841.35 1367.05C1833.64 1381.35 1823.53 1394 1810.88 1405.08L1839.85 1438.19C1856.37 1423.74 1869.82 1406.97 1880.08 1387.93L1841.35 1367.05ZM1810.96 1405C1798.54 1415.76 1783.85 1424.35 1766.62 1430.66L1781.77 1471.97C1803.6 1463.97 1823.02 1452.77 1839.77 1438.26L1810.96 1405ZM1766.74 1430.62C1749.92 1436.67 1730.81 1439.87 1709.15 1439.87V1483.87C1735.15 1483.87 1759.4 1480.03 1781.64 1472.02L1766.74 1430.62ZM1709.15 1439.87C1677.53 1439.87 1650.08 1432.59 1626.19 1418.5L1603.84 1456.4C1635.15 1474.87 1670.46 1483.87 1709.15 1483.87V1439.87ZM1626.19 1418.5C1602.43 1404.5 1583.46 1384.2 1569.32 1356.84L1530.23 1377.05C1547.86 1411.15 1572.38 1437.86 1603.84 1456.4L1626.19 1418.5ZM1569.32 1356.84C1555.39 1329.9 1547.95 1296.69 1547.95 1256.4H1503.95C1503.95 1302.05 1512.39 1342.53 1530.23 1377.05L1569.32 1356.84ZM1547.95 1256.4C1547.95 1215.99 1555.46 1182.82 1569.46 1156.05L1530.48 1135.65C1512.46 1170.08 1503.95 1210.61 1503.95 1256.4H1547.95ZM1569.48 1156.02C1583.76 1128.63 1602.81 1108.31 1626.58 1094.29L1604.23 1056.39C1572.79 1074.93 1548.22 1101.61 1530.46 1135.68L1569.48 1156.02ZM1626.58 1094.29C1650.5 1080.19 1677.83 1072.93 1709.15 1072.93V1028.93C1670.69 1028.93 1635.52 1037.94 1604.23 1056.39L1626.58 1094.29ZM1709.15 1072.93C1729.34 1072.93 1747.72 1075.76 1764.43 1081.22L1778.09 1039.39C1756.53 1032.35 1733.49 1028.93 1709.15 1028.93V1072.93ZM1764.43 1081.22C1781.14 1086.67 1795.8 1094.6 1808.6 1104.95L1836.27 1070.74C1819.12 1056.87 1799.66 1046.43 1778.09 1039.39L1764.43 1081.22ZM1808.69 1105.02C1821.33 1115.13 1831.79 1127.59 1840.09 1142.62L1878.61 1121.35C1867.64 1101.48 1853.49 1084.51 1836.18 1070.66L1808.69 1105.02ZM1840.19 1142.79C1848.41 1157.38 1854.01 1174.44 1856.69 1194.29L1900.29 1188.43C1896.97 1163.75 1889.82 1141.22 1878.51 1121.18L1840.19 1142.79ZM2101.38 1456.4V1478.4H2117.21L2122.24 1463.39L2101.38 1456.4ZM2024.04 1456.4L2003.28 1449.09L1992.97 1478.4H2024.04V1456.4ZM2164.86 1056.4V1034.4H2149.28L2144.1 1049.09L2164.86 1056.4ZM2254.31 1056.4L2275.06 1049.08L2269.88 1034.4H2254.31V1056.4ZM2395.33 1456.4V1478.4H2426.41L2416.07 1449.08L2395.33 1456.4ZM2317.98 1456.4L2297.13 1463.4L2302.16 1478.4H2317.98V1456.4ZM2211.15 1138.43L2232 1131.42L2226.96 1116.43H2211.15V1138.43ZM2208.02 1138.43V1116.43H2192.19L2187.16 1131.43L2208.02 1138.43ZM2103.92 1299.56V1277.56H2081.92V1299.56H2103.92ZM2314.86 1299.56H2336.86V1277.56H2314.86V1299.56ZM2314.86 1357.76V1379.76H2336.86V1357.76H2314.86ZM2103.92 1357.76H2081.92V1379.76H2103.92V1357.76ZM2101.38 1434.4H2024.04V1478.4H2101.38V1434.4ZM2044.79 1463.7L2185.61 1063.7L2144.1 1049.09L2003.28 1449.09L2044.79 1463.7ZM2164.86 1078.4H2254.31V1034.4H2164.86V1078.4ZM2233.56 1063.71L2374.58 1463.71L2416.07 1449.08L2275.06 1049.08L2233.56 1063.71ZM2395.33 1434.4H2317.98V1478.4H2395.33V1434.4ZM2338.84 1449.39L2232 1131.42L2190.29 1145.44L2297.13 1463.4L2338.84 1449.39ZM2211.15 1116.43H2208.02V1160.43H2211.15V1116.43ZM2187.16 1131.43L2080.52 1449.4L2122.24 1463.39L2228.88 1145.42L2187.16 1131.43ZM2103.92 1321.56H2314.86V1277.56H2103.92V1321.56ZM2292.86 1299.56V1357.76H2336.86V1299.56H2292.86ZM2314.86 1335.76H2103.92V1379.76H2314.86V1335.76ZM2125.92 1357.76V1299.56H2081.92V1357.76H2125.92ZM2558.01 1456.4H2536.01V1478.4H2558.01V1456.4ZM2558.01 1056.4V1034.4H2536.01V1056.4H2558.01ZM2798.64 1080.42L2787.86 1099.6L2787.91 1099.63L2787.97 1099.66L2798.64 1080.42ZM2864.65 1148.98L2845.09 1159.05L2845.09 1159.05L2864.65 1148.98ZM2864.46 1363.43L2844.92 1353.32L2844.9 1353.35L2844.88 1353.39L2864.46 1363.43ZM2797.85 1432.37L2787.23 1413.11L2787.21 1413.12L2787.19 1413.13L2797.85 1432.37ZM2630.47 1393.7H2608.47V1415.7H2630.47V1393.7ZM2759.77 1378.47L2770.3 1397.78L2770.36 1397.75L2770.41 1397.72L2759.77 1378.47ZM2801.76 1332.57L2821.74 1341.79L2821.75 1341.76L2821.76 1341.74L2801.76 1332.57ZM2801.76 1179.84L2781.79 1189.05L2781.8 1189.08L2781.81 1189.1L2801.76 1179.84ZM2760.16 1134.33L2749.45 1153.55L2749.53 1153.59L2749.61 1153.64L2760.16 1134.33ZM2630.47 1119.09V1097.09H2608.47V1119.09H2630.47ZM2693.56 1434.4H2558.01V1478.4H2693.56V1434.4ZM2580.01 1456.4V1056.4H2536.01V1456.4H2580.01ZM2558.01 1078.4H2696.29V1034.4H2558.01V1078.4ZM2696.29 1078.4C2733.04 1078.4 2763.27 1085.79 2787.86 1099.6L2809.41 1061.24C2776.97 1043.02 2738.97 1034.4 2696.29 1034.4V1078.4ZM2787.97 1099.66C2812.71 1113.38 2831.67 1133 2845.09 1159.05L2884.21 1138.9C2866.9 1105.31 2841.85 1079.23 2809.3 1061.18L2787.97 1099.66ZM2845.09 1159.05C2858.52 1185.1 2865.7 1217.16 2865.7 1256.01H2909.7C2909.7 1211.79 2901.52 1172.49 2884.21 1138.9L2845.09 1159.05ZM2865.7 1256.01C2865.7 1294.97 2858.46 1327.15 2844.92 1353.32L2884 1373.54C2901.44 1339.81 2909.7 1300.38 2909.7 1256.01H2865.7ZM2844.88 1353.39C2831.48 1379.5 2812.37 1399.24 2787.23 1413.11L2808.48 1451.64C2841.41 1433.47 2866.7 1407.25 2884.03 1373.47L2844.88 1353.39ZM2787.19 1413.13C2762.22 1426.97 2731.3 1434.4 2693.56 1434.4V1478.4C2737.07 1478.4 2775.68 1469.81 2808.52 1451.62L2787.19 1413.13ZM2630.47 1415.7H2690.04V1371.7H2630.47V1415.7ZM2690.04 1415.7C2720.47 1415.7 2747.6 1410.17 2770.3 1397.78L2749.23 1359.15C2734.7 1367.08 2715.34 1371.7 2690.04 1371.7V1415.7ZM2770.41 1397.72C2793.35 1385.05 2810.51 1366.12 2821.74 1341.79L2781.79 1323.35C2774.27 1339.64 2763.43 1351.31 2749.13 1359.21L2770.41 1397.72ZM2821.76 1341.74C2832.84 1317.58 2837.82 1288.69 2837.82 1256.01H2793.82C2793.82 1284.52 2789.43 1306.67 2781.76 1323.4L2821.76 1341.74ZM2837.82 1256.01C2837.82 1223.34 2832.84 1194.53 2821.71 1170.57L2781.81 1189.1C2789.43 1205.51 2793.82 1227.48 2793.82 1256.01H2837.82ZM2821.74 1170.62C2810.53 1146.33 2793.5 1127.47 2770.7 1115.02L2749.61 1153.64C2763.53 1161.24 2774.24 1172.71 2781.79 1189.05L2821.74 1170.62ZM2770.87 1115.11C2748.53 1102.66 2721.94 1097.09 2692.19 1097.09V1141.09C2716.61 1141.09 2735.33 1145.68 2749.45 1153.55L2770.87 1115.11ZM2692.19 1097.09H2630.47V1141.09H2692.19V1097.09ZM2608.47 1119.09V1393.7H2652.47V1119.09H2608.47ZM3066.55 1456.4H3044.55V1478.4H3066.55V1456.4ZM3066.55 1056.4V1034.4H3044.55V1056.4H3066.55ZM3326.7 1056.4H3348.7V1034.4H3326.7V1056.4ZM3326.7 1117.14V1139.14H3348.7V1117.14H3326.7ZM3139.01 1117.14V1095.14H3117.01V1117.14H3139.01ZM3139.01 1225.73H3117.01V1247.73H3139.01V1225.73ZM3313.23 1225.73H3335.23V1203.73H3313.23V1225.73ZM3313.23 1286.48V1308.48H3335.23V1286.48H3313.23ZM3139.01 1286.48V1264.48H3117.01V1286.48H3139.01ZM3139.01 1395.66H3117.01V1417.66H3139.01V1395.66ZM3328.26 1395.66H3350.26V1373.66H3328.26V1395.66ZM3328.26 1456.4V1478.4H3350.26V1456.4H3328.26ZM3088.55 1456.4V1056.4H3044.55V1456.4H3088.55ZM3066.55 1078.4H3326.7V1034.4H3066.55V1078.4ZM3304.7 1056.4V1117.14H3348.7V1056.4H3304.7ZM3326.7 1095.14H3139.01V1139.14H3326.7V1095.14ZM3117.01 1117.14V1225.73H3161.01V1117.14H3117.01ZM3139.01 1247.73H3313.23V1203.73H3139.01V1247.73ZM3291.23 1225.73V1286.48H3335.23V1225.73H3291.23ZM3313.23 1264.48H3139.01V1308.48H3313.23V1264.48ZM3117.01 1286.48V1395.66H3161.01V1286.48H3117.01ZM3139.01 1417.66H3328.26V1373.66H3139.01V1417.66ZM3306.26 1395.66V1456.4H3350.26V1395.66H3306.26ZM3328.26 1434.4H3066.55V1478.4H3328.26V1434.4ZM3510.63 1056.4V1034.4H3488.63V1056.4H3510.63ZM3599.3 1056.4L3619.66 1048.06L3614.06 1034.4H3599.3V1056.4ZM3718.05 1346.24L3697.69 1354.58L3703.29 1368.24H3718.05V1346.24ZM3722.74 1346.24V1368.24H3737.5L3743.09 1354.58L3722.74 1346.24ZM3841.49 1056.4V1034.4H3826.73L3821.13 1048.06L3841.49 1056.4ZM3930.16 1056.4H3952.16V1034.4H3930.16V1056.4ZM3930.16 1456.4V1478.4H3952.16V1456.4H3930.16ZM3860.63 1456.4H3838.63V1478.4H3860.63V1456.4ZM3860.63 1181.59H3882.63V1159.59H3860.63V1181.59ZM3856.92 1181.59V1159.59H3842.08L3836.52 1173.35L3856.92 1181.59ZM3746.37 1455.23V1477.23H3761.21L3766.77 1463.47L3746.37 1455.23ZM3694.42 1455.23L3674.01 1463.45L3679.57 1477.23H3694.42V1455.23ZM3583.87 1181.01L3604.27 1172.78L3598.72 1159.01H3583.87V1181.01ZM3580.16 1181.01V1159.01H3558.16V1181.01H3580.16ZM3580.16 1456.4V1478.4H3602.16V1456.4H3580.16ZM3510.63 1456.4H3488.63V1478.4H3510.63V1456.4ZM3510.63 1078.4H3599.3V1034.4H3510.63V1078.4ZM3578.94 1064.74L3697.69 1354.58L3738.41 1337.9L3619.66 1048.06L3578.94 1064.74ZM3718.05 1368.24H3722.74V1324.24H3718.05V1368.24ZM3743.09 1354.58L3861.84 1064.74L3821.13 1048.06L3702.38 1337.9L3743.09 1354.58ZM3841.49 1078.4H3930.16V1034.4H3841.49V1078.4ZM3908.16 1056.4V1456.4H3952.16V1056.4H3908.16ZM3930.16 1434.4H3860.63V1478.4H3930.16V1434.4ZM3882.63 1456.4V1181.59H3838.63V1456.4H3882.63ZM3860.63 1159.59H3856.92V1203.59H3860.63V1159.59ZM3836.52 1173.35L3725.97 1446.98L3766.77 1463.47L3877.32 1189.83L3836.52 1173.35ZM3746.37 1433.23H3694.42V1477.23H3746.37V1433.23ZM3714.82 1447L3604.27 1172.78L3563.47 1189.23L3674.01 1463.45L3714.82 1447ZM3583.87 1159.01H3580.16V1203.01H3583.87V1159.01ZM3558.16 1181.01V1456.4H3602.16V1181.01H3558.16ZM3580.16 1434.4H3510.63V1478.4H3580.16V1434.4ZM3532.63 1456.4V1056.4H3488.63V1456.4H3532.63ZM4091.72 1056.4V1034.4H4053.52L4072.69 1067.44L4091.72 1056.4ZM4173.56 1056.4L4192.81 1045.75L4186.53 1034.4H4173.56V1056.4ZM4271.41 1233.35L4252.16 1244L4258.44 1255.35H4271.41V1233.35ZM4275.32 1233.35V1255.35H4288.29L4294.57 1244L4275.32 1233.35ZM4373.17 1056.4V1034.4H4360.19L4353.91 1045.75L4373.17 1056.4ZM4455 1056.4L4474.03 1067.44L4493.2 1034.4H4455V1056.4ZM4309.5 1307.18L4290.47 1296.14L4287.5 1301.26V1307.18H4309.5ZM4309.5 1456.4V1478.4H4331.5V1456.4H4309.5ZM4237.23 1456.4H4215.23V1478.4H4237.23V1456.4ZM4237.23 1307.18H4259.23V1301.26L4256.26 1296.14L4237.23 1307.18ZM4091.72 1078.4H4173.56V1034.4H4091.72V1078.4ZM4154.31 1067.04L4252.16 1244L4290.66 1222.7L4192.81 1045.75L4154.31 1067.04ZM4271.41 1255.35H4275.32V1211.35H4271.41V1255.35ZM4294.57 1244L4392.42 1067.04L4353.91 1045.75L4256.06 1222.7L4294.57 1244ZM4373.17 1078.4H4455V1034.4H4373.17V1078.4ZM4435.97 1045.36L4290.47 1296.14L4328.52 1318.22L4474.03 1067.44L4435.97 1045.36ZM4287.5 1307.18V1456.4H4331.5V1307.18H4287.5ZM4309.5 1434.4H4237.23V1478.4H4309.5V1434.4ZM4259.23 1456.4V1307.18H4215.23V1456.4H4259.23ZM4256.26 1296.14L4110.75 1045.36L4072.69 1067.44L4218.2 1318.22L4256.26 1296.14Z" fill="#3067DB"/>
</svg>
