<?xml version="1.0" encoding="utf-8"?>
<!-- Generator: Adobe Illustrator 22.0.1, SVG Export Plug-In . SVG Version: 6.00 Build 0)  -->
<svg version="1.1" id="Layer_1" xmlns="http://www.w3.org/2000/svg" xmlns:xlink="http://www.w3.org/1999/xlink" x="0px" y="0px"
	 viewBox="0 0 819.9 1082.6" style="enable-background:new 0 0 819.9 1082.6;" xml:space="preserve">
<style type="text/css">
	.st0{fill:#3067DB;}
	.st1{fill:#3982E8;}
</style>
<g>
	<g>
		<path class="st0" d="M281.1,3c298.2,0,540,241.8,540,540s-241.8,540-540,540H0.3v-97.2h280.8c244.6,0,442.8-198.2,442.8-442.8
			c0-244.6-198.2-442.8-442.8-442.8H0.3V3H281.1z"/>
		<path class="st1" d="M281.1,100.2c244.6,0,442.8,198.2,442.8,442.8c0,244.6-198.2,442.8-442.8,442.8H0.3v-97.2h280.8
			c190.9,0,345.6-154.7,345.6-345.6S471.9,197.4,281.1,197.4H0.3v-97.2H281.1z"/>
	</g>
</g>
</svg>
