<svg width="3712" height="528" viewBox="0 0 3712 528" fill="none" xmlns="http://www.w3.org/2000/svg">
<path d="M629.756 485.469L632.5 495.81L635.5 489V483.5L629.756 485.469ZM578.975 485.469L548.5 495.81H581.5L578.975 485.469ZM725.85 85.4688V55.4688H704.907L697.688 75.1282L725.85 85.4688ZM775.85 85.4688L804.011 75.1282L796.792 55.4688H775.85V85.4688ZM922.725 485.469V495.81H925L955 496L922.725 485.469ZM871.943 485.469L868.5 479.5L874.5 495.81H922.725L871.943 485.469ZM752.412 148.75L780.684 138.714L773.597 118.75H752.412V148.75ZM749.287 148.75V118.75H728.102L721.016 138.714L749.287 148.75ZM648.506 329.219V342.188L618.506 299.219V329.219H648.506ZM853.193 329.219H883.193V299.219L853.193 342.188V329.219ZM853.193 372.188V402.188H883.193V372.188H853.193ZM648.506 372.188H618.506V402.188L651.594 387.688L648.506 372.188ZM629.756 455.469H578.975L581.5 495.81H632.5L629.756 455.469ZM607.136 495.81L754.011 95.8098L697.688 75.1282L548.5 495.81L581.5 496L607.136 495.81ZM725.85 115.469H775.85V55.4688H725.85V115.469ZM747.688 95.8098L894.563 495.81L955 496L804.011 75.1282L747.688 95.8098ZM922.725 455.469H871.943L922.725 495.81V455.469ZM900.215 475.433L780.684 138.714L752.412 148.75L818 340.5L834 384.5L868.5 479.5L900.215 475.433ZM752.412 118.75H749.287L752.412 148.75V118.75ZM721.016 138.714L601.484 475.433L635.5 483.5L663 408L684.5 336.563L752.412 148.75L721.016 138.714ZM648.506 359.219H853.193V342.188H750.849H648.506V359.219ZM823.193 329.219V372.188H883.193V329.219H823.193ZM853.193 342.188H648.506L651.594 387.688L755.5 369L834 384.5L853.193 402.188V342.188ZM678.506 372.188V329.219H618.506V372.188H678.506ZM1186.24 280L1160.45 287.511L1169.17 302.188H1186.24V280ZM1195.5 278.658L1190.93 302.188H1208L1216.72 287.511L1195.5 278.658ZM1306.18 97.1238L1310.5 95.8098L1301.86 98.4378L1306.18 97.1238ZM1357.33 98.3763L1389.5 79.5L1357.33 95.8098V98.3763ZM1212.8 320.625L1187.24 304.917L1182.8 312.143V320.625H1212.8ZM1212.8 485.469V512H1231.5V485.469H1212.8ZM1164.36 485.469H1147V512H1164.36V485.469ZM1164.36 320.625H1194.36V312.143L1189.92 304.917L1164.36 320.625ZM1019.83 115.469H1075.3V95.8098L1013.5 79.5L1019.83 115.469ZM1049.51 100.793L1160.45 287.511L1190.93 283.5L1177 264L1164.36 243L1130 184.5L1075.3 95.8098L1049.51 100.793ZM1186.24 302.188H1190.93V283.5L1186.24 278.658V302.188ZM1216.72 287.511L1327.65 100.793L1301.86 98.4378L1242.8 197L1222 233.594L1208 259L1190.93 283.5L1216.72 287.511ZM1301.86 115.469H1357.33V95.8098H1310.5L1301.86 115.469ZM1333.92 95.8098L1187.24 304.917L1231.5 336.563L1389.5 79.5H1357.33L1333.92 95.8098ZM1182.8 320.625V485.469H1231.5V320.625H1182.8ZM1212.8 455.469H1164.36V512H1212.8V455.469ZM1194.36 485.469V320.625H1147V485.469H1194.36ZM1189.92 304.917L1047.57 95.8098L1013.5 79.5L991 81.5L1147 339L1189.92 304.917ZM1529.98 485.469H1499.98V496H1529.98V485.469ZM1529.98 85.4688V65H1499.98V85.4688H1529.98ZM1769.82 128.438L1767.5 137H1772L1769.82 128.438ZM1578.42 128.438V98.4378H1548.42V128.438H1578.42ZM1578.42 263.594H1548.42V293.594H1578.42V263.594ZM1751.85 274.5L1749.5 276.563H1751.85V274.5ZM1578.42 306.563V276.563H1548.42V306.563H1578.42ZM1559.98 485.469V85.4688H1499.98V485.469H1559.98ZM1529.98 115.469H1769.82L1772 99.5V85.4688V65H1650.5H1529.98V115.469ZM1739.82 85.4688V128.438H1769.82L1772 71L1739.82 85.4688ZM1769.82 98.4378H1578.42V137H1767.5L1769.82 98.4378ZM1548.42 128.438V263.594H1578.42V128.438H1548.42ZM1578.42 293.594H1751.85V276.563H1665.14H1578.42V293.594ZM1721.85 276.563V306.563H1751.85L1749.5 276.563H1721.85ZM1751.85 276.563H1578.42V316.5L1751.85 312.143V276.563ZM1548.42 306.563V485.469H1578.42V397.5V352V306.563H1548.42ZM1578.42 455.469H1529.98V496H1578.42V455.469ZM2236.02 197.774V176.094L2241.56 184.773V195.111L2236.02 197.774ZM2189.34 143.672L2193.5 137L2205.27 148.5H2214.73L2189.34 143.672ZM2057.9 143.672L2042.04 118.204L2042.01 118.227L2041.97 118.251L2057.9 143.672ZM2011.22 197.774L1984.24 184.653L1984.21 184.713L1984.18 184.773L2011.22 197.774ZM2000 377.162L1984.18 386.165L1984.21 386.225L1984.24 386.285L2000 377.162ZM2048.65 440.526L2041.97 452.687L2042.01 452.711L2042.04 452.734L2048.65 440.526ZM2209.04 433.403L2227.68 416L2205.2 427.266L2198.79 440.526L2209.04 433.403ZM2250.55 381.519L2248.1 386.285L2241.56 397.5L2236.02 405.621L2250.55 381.519ZM2270.28 285.469C2270.28 324.077 2263.31 355.775 2250.55 381.519L2314 408.169C2331.7 372.455 2336 331.236 2336 285.469H2270.28ZM2250.55 381.519C2237.54 407.768 2220.23 427.075 2198.79 440.526L2241.56 500C2273.25 480.117 2296.54 443.378 2314 408.169L2250.55 381.519ZM2198.79 440.526C2177.42 453.932 2152.71 460.938 2123.72 460.938V527.5C2162.96 527.5 2209.8 519.927 2241.56 500L2198.79 440.526ZM2123.72 460.938C2094.73 460.938 2070.01 453.932 2048.65 440.526L2011.22 500C2042.98 519.927 2084.48 527.5 2123.72 527.5V460.938ZM2048.65 440.526C2027.21 427.075 2009.9 407.768 1996.89 381.519L1938 408.5C1955.45 443.709 1979.53 480.117 2011.22 500L2048.65 440.526ZM1996.89 381.519C1984.12 355.775 1977.16 324.077 1977.16 285.469H1917.16C1917.16 331.236 1920.29 372.786 1938 408.5L1996.89 381.519ZM1977.16 285.469C1977.16 246.861 1984.12 215.163 1996.89 189.419L1943.13 162.769C1925.42 198.483 1917.16 239.702 1917.16 285.469H1977.16ZM1996.89 189.419C2009.9 163.17 2027.21 143.863 2048.65 130.412L2016.76 79.5881C1985.07 99.4708 1960.58 127.56 1943.13 162.769L1996.89 189.419ZM2048.65 130.412C2070.01 117.006 2094.73 110 2123.72 110V50C2084.48 50 2048.52 59.6612 2016.76 79.5881L2048.65 130.412ZM2123.72 110C2152.71 110 2177.42 117.006 2198.79 130.412L2230.68 79.5881C2198.92 59.6612 2162.96 50 2123.72 50V110ZM2198.79 130.412C2220.23 143.863 2237.54 163.17 2250.55 189.419L2304.31 162.769C2286.85 127.56 2262.37 99.4708 2230.68 79.5881L2198.79 130.412ZM2250.55 189.419C2263.31 215.163 2270.28 246.861 2270.28 285.469H2336C2336 239.702 2322.01 198.483 2304.31 162.769L2250.55 189.419ZM2283.41 285.469C2283.41 247.629 2277.09 213.625 2263 184.653L2241.56 195.111C2250.65 213.796 2270.25 258.851 2270.25 290.282L2283.41 285.469ZM2263.06 184.773C2249.49 156.557 2230.35 133.862 2205.2 118.204L2214.73 148.5C2228.9 157.321 2226.67 156.653 2236.02 176.094L2263.06 184.773ZM2205.27 118.251C2180.72 102.864 2153.27 95.3128 2123.72 95.3128L2128 122C2146.88 122 2178.99 127.908 2193.5 137L2205.27 118.251ZM2123.72 95.3128C2094.16 95.3128 2066.69 102.864 2042.04 118.204L2053.75 137C2068.43 127.862 2109.12 122 2128 122L2123.72 95.3128ZM2041.97 118.251C2017 133.9 1997.91 156.543 1984.24 184.653L2011.22 197.774C2020.72 178.228 2043.05 151.279 2057.14 142.449L2041.97 118.251ZM1984.18 184.773C1970.27 213.712 1964.03 247.671 1964.03 285.469H1990.5C1990.5 253.996 1987.88 229.492 1996.89 210.775L1984.18 184.773ZM1964.03 285.469C1964.03 323.267 1970.27 357.226 1984.18 386.165L2003 377.162C1993.99 358.445 1950.71 320.018 1990.5 285.469H1964.03ZM1984.24 386.285C1997.91 414.395 2017 437.038 2041.97 452.687L2048.65 440.526C2034.56 431.696 2012.5 396.708 2003 377.162L1984.24 386.285ZM2042.04 452.734C2066.69 468.074 2094.16 475.625 2123.72 475.625V460.938C2104.84 460.938 2096.97 464.607 2082.29 455.469L2042.04 452.734ZM2123.72 475.625C2153.27 475.625 2180.72 468.074 2205.27 452.687L2198.79 440.526C2184.28 449.618 2142.6 460.938 2123.72 460.938V475.625ZM2205.2 452.734C2230.35 437.076 2249.49 414.381 2263.06 386.165L2236.02 405.621C2226.67 425.062 2241.85 407.179 2227.68 416L2205.2 452.734ZM2263 386.285C2277.09 357.313 2283.41 323.309 2283.41 285.469L2270.25 290.282C2270.25 321.713 2257.19 367.6 2248.1 386.285H2263ZM2491.73 485.469H2461.73V515.469H2491.73V485.469ZM2491.73 85.4688V55.4688H2461.73V85.4688H2491.73ZM2703.84 101.485L2689.74 127.965L2689.8 128L2689.87 128.036L2703.84 101.485ZM2704.03 313.789L2717.8 340.446L2717.86 340.41L2717.93 340.374L2704.03 313.789ZM2518.29 329.219H2488.29V359.219H2518.29V329.219ZM2518.29 285.469L2514.5 299.219L2488.29 255.469V285.469H2518.29ZM2677.27 294.661L2679.53 296.096L2690.13 287.204L2675 293.225L2677.27 294.661ZM2713 256.801H2715.5L2713 263.306L2709 268L2713 256.801ZM2677.47 138.399L2675 145.039L2680.01 147.5L2677.47 138.399ZM2540.16 128.438V98.4378H2510.16V128.438H2540.16ZM2680.01 305.781L2706.32 291.368L2697.78 275.781L2682.57 290.215L2680.01 305.781ZM2778.45 485.469V515.469H2829.09L2804.76 471.055L2778.45 485.469ZM2722.2 485.469L2695.79 499.706L2704.29 515.469H2722.2V485.469ZM2625.32 305.781L2627.66 299.219H2586.5L2598.91 320.018L2625.32 305.781ZM2521.73 485.469V85.4688H2461.73V485.469H2521.73ZM2491.73 115.469H2626.88V55.4688H2491.73V115.469ZM2626.88 115.469C2654.97 115.469 2675.35 120.303 2689.74 127.965L2717.94 75.0043C2692.22 61.3123 2661.3 55.4688 2626.88 55.4688V115.469ZM2689.87 128.036C2705.01 135.998 2715.2 146.304 2721.76 158.903L2774.97 131.175C2762.27 106.796 2742.77 88.065 2717.8 74.9331L2689.87 128.036ZM2721.76 158.903C2728.89 172.582 2732.82 188.749 2732.82 208.125H2792.82C2792.82 180.366 2787.11 154.476 2774.97 131.175L2721.76 158.903ZM2732.82 208.125C2732.82 227.511 2728.89 243.475 2721.84 256.801L2774.89 284.84C2787.12 261.708 2792.82 235.875 2792.82 208.125H2732.82ZM2721.84 256.801C2715.3 269.174 2705.18 279.336 2690.13 287.204L2717.93 340.374C2742.73 327.41 2762.16 308.925 2774.89 284.84L2721.84 256.801ZM2690.27 287.133C2675.91 294.546 2655.6 299.219 2627.66 299.219V359.219C2661.71 359.219 2692.31 353.606 2717.8 340.446L2690.27 287.133ZM2627.66 299.219H2518.29V359.219H2627.66V299.219ZM2548.29 329.219L2535 284.84L2488.29 285.469V329.219H2548.29ZM2518.29 315.469H2626.1L2622 299.219H2514.5L2518.29 315.469ZM2626.1 315.469C2649.98 315.469 2672.11 312.038 2690.65 303.14L2675 293.225C2667.5 296.827 2640.84 299.219 2622 299.219L2626.1 315.469ZM2690.54 303.19C2708.83 294.496 2723.63 281.29 2732.89 263.19L2709 268C2706.54 272.816 2687.54 292.29 2679.53 296.096L2675 293.225L2690.54 303.19ZM2732.83 263.306C2741.47 246.597 2745.16 227.859 2745.16 208.125H2721.76C2721.76 220.423 2718.84 250.333 2715.5 256.801L2732.83 263.306ZM2745.16 208.125C2745.16 188.356 2741.45 169.601 2733.01 152.717L2703.84 166.5C2707.37 173.575 2721.76 195.863 2721.76 208.125H2745.16ZM2733.01 152.717C2723.82 134.33 2709.19 120.628 2690.78 111.513L2680.01 147.5C2687.9 151.405 2701.05 160.928 2703.84 166.5L2733.01 152.717ZM2690.99 111.619C2672.15 102.105 2649.6 98.4378 2625.32 98.4378V138.399C2644.27 138.399 2667.54 141.272 2675 145.039L2690.99 111.619ZM2625.32 98.4378H2540.16V138.399H2625.32V98.4378ZM2510.16 128.438V485.469L2541.83 484.558L2540.16 305.781V128.438H2510.16ZM2540.16 453.647L2491.73 455.469V515.469L2542.5 515L2540.16 453.647ZM2653.7 320.195L2752.13 499.883L2804.76 471.055L2706.32 291.368L2653.7 320.195ZM2778.45 455.469H2722.2V515.469H2778.45V455.469ZM2748.6 471.232L2653.7 297.659L2598.91 320.018L2695.79 499.706L2748.6 471.232ZM2625.32 335.782H2680.01L2682.57 290.215L2627.66 299.219L2625.32 335.782ZM3275.41 210.469L3277.5 221H3306.5L3304.95 205.234L3275.41 210.469ZM3226.97 210.469L3236.75 189.419L3229.54 217.5L3229.73 220L3226.97 210.469ZM3211.93 173.75L3219.55 162.769L3216.47 152.717L3223.49 161.484L3211.93 173.75ZM3186.15 147.188L3195 142L3197.59 147.188L3201.07 143.672L3186.15 147.188ZM3048.65 143.672L3032.8 118.204L3032.76 118.227L3032.72 118.251L3048.65 143.672ZM3001.97 197.774L2974.99 184.653L2974.96 184.713L2974.93 184.773L3001.97 197.774ZM3001.97 373.164L2974.93 386.165L2974.96 386.225L2974.99 386.285L3001.97 373.164ZM3048.65 427.266L3032.72 452.687L3032.76 452.711L3032.8 452.734L3048.65 427.266ZM3186.15 423.946L3203.59 448.358L3203.62 448.336L3203.65 448.315L3186.15 423.946ZM3221.52 415.914L3226 411.5L3223.49 413.829L3219.55 418L3221.52 415.914ZM3232.62 394.844L3242 388L3238.09 390.469L3236.75 404.167L3232.62 394.844ZM3275 381.552L3303 371H3277.42L3275 381.552ZM3171.31 482.149L3161.94 453.647L3161.91 453.657L3161.88 453.667L3171.31 482.149ZM3171.31 88.7891L3161.88 117.271L3161.91 117.281L3161.94 117.291L3171.31 88.7891ZM3219.55 114.571L3200.94 138.101L3201 138.153L3201.07 138.205L3219.55 114.571ZM3255.49 155.586L3229.73 170.96L3229.75 171.006L3229.78 171.052L3255.49 155.586ZM3275.41 180.469H3226.97L3229.73 220L3277.5 221L3275.41 180.469ZM3256.36 204.427C3252.79 187.074 3246.37 171.07 3236.75 156.898L3223.49 161.484C3228.19 168.405 3234.58 178.908 3236.75 189.419L3256.36 204.427ZM3236.89 157.109C3227.85 143.549 3216.68 132.005 3203.44 122.67L3201.07 143.672C3208.15 148.661 3214.53 155.236 3219.55 162.769L3236.89 157.109ZM3203.8 122.926C3190.94 113.573 3176.72 106.617 3161.32 102.03L3168.51 119.636C3177.59 122.341 3187.8 136.769 3195 142L3203.8 122.926ZM3161.32 102.03C3146.19 97.5238 3130.54 95.3128 3114.47 95.3128V110C3124.97 110 3159.16 116.851 3168.51 119.636L3161.32 102.03ZM3114.47 95.3128C3084.92 95.3128 3057.44 102.864 3032.8 118.204L3064 122.67C3078.69 113.532 3095.59 110 3114.47 110V95.3128ZM3032.72 118.251C3007.75 133.9 2988.66 156.543 2974.99 184.653H3007.51C3017.02 165.107 3016.79 124.321 3048.65 138.101L3032.72 118.251ZM2974.93 184.773C2961.02 213.712 2954.78 247.671 2954.78 285.469L2968.04 276.563C2968.04 245.09 2987.5 213.829 2996.5 195.112L2974.93 184.773ZM2954.78 285.469C2954.78 323.267 2961.02 357.226 2974.93 386.165L2987.64 366.566C2978.64 347.849 2968.04 308.036 2968.04 276.563L2954.78 285.469ZM2974.99 386.285C2988.66 414.395 3007.75 437.038 3032.72 452.687V436.049C3018.63 427.219 2987.54 405.831 2978.03 386.285H2974.99ZM3032.8 452.734C3057.44 468.074 3084.92 475.625 3114.47 475.625L3107 465.938C3088.12 465.938 3054.09 449.664 3039.4 440.526L3032.8 452.734ZM3114.47 475.625C3130.54 475.625 3146.19 473.414 3161.32 468.908L3152.75 460.938C3143.4 463.723 3117.5 465.938 3107 465.938L3114.47 475.625ZM3161.32 468.908C3176.62 464.351 3190.77 457.516 3203.59 448.358L3190.66 456.563C3183.43 461.727 3161.93 458.204 3152.75 460.938L3161.32 468.908ZM3203.65 448.315C3216.78 438.888 3227.89 427.338 3236.89 413.829L3219.55 418C3214.49 425.585 3219.12 430.893 3211.93 436.049L3203.65 448.315ZM3236.85 413.899C3246.37 399.707 3248.43 388.391 3252 371.164L3236.75 404.167C3234.59 414.543 3230.8 404.337 3226 411.5L3236.85 413.899ZM3226.97 390.469L3277.42 371L3242 388L3234.04 392.064L3226.97 390.469ZM3245.87 394.844C3242.8 412.089 3237.32 387.254 3229.73 399.978L3281.25 430.726C3292.93 411.158 3298.79 394.64 3303 371L3275 381.552L3245.87 394.844ZM3229.73 399.978C3221.9 413.088 3212.32 424.033 3200.94 433.033L3245.87 482.149C3263.14 468.492 3269.8 449.908 3281.25 430.726L3229.73 399.978ZM3201.07 432.929C3189.57 441.919 3176.6 448.835 3161.94 453.647L3183 520.5C3204.02 513.593 3228.72 495.554 3245.87 482.149L3201.07 432.929ZM3161.88 453.667C3147.45 458.442 3131.71 460.938 3114.47 460.938V527.5C3137.59 527.5 3162.01 527.445 3183 520.5L3161.88 453.667ZM3114.47 460.938C3085.48 460.938 3060.77 453.932 3039.4 440.526L3001.97 497C3033.73 516.927 3075.23 527.5 3114.47 527.5V460.938ZM3039.4 440.526C3017.96 427.075 3000.65 407.768 2987.64 381.519L2930 407C2947.46 442.209 2970.28 477.117 3001.97 497L3039.4 440.526ZM2987.64 381.519C2974.88 355.775 2967.91 324.077 2967.91 285.469H2903.5C2903.5 331.236 2912.3 371.286 2930 407L2987.64 381.519ZM2967.91 285.469C2967.91 246.861 2974.88 215.163 2987.64 189.419L2933.88 162.769C2916.18 198.483 2903.5 239.702 2903.5 285.469H2967.91ZM2987.64 189.419C3000.65 163.17 3017.96 143.863 3039.4 130.412L3007.51 79.5881C2975.82 99.4708 2951.34 127.56 2933.88 162.769L2987.64 189.419ZM3039.4 130.412C3060.77 117.006 3085.48 110 3114.47 110V50C3075.23 50 3039.27 59.6612 3007.51 79.5881L3039.4 130.412ZM3114.47 110C3131.71 110 3147.45 112.496 3161.88 117.271L3180.73 60.3077C3159.74 53.3632 3137.59 50 3114.47 50V110ZM3161.94 117.291C3176.53 122.081 3189.46 129.022 3200.94 138.101L3238.16 91.0398C3220.99 77.4623 3201.76 67.2158 3180.67 60.2872L3161.94 117.291ZM3201.07 138.205C3212.38 147.044 3221.92 157.883 3229.73 170.96L3281.25 140.212C3269.78 120.998 3255.37 104.493 3238.03 90.9358L3201.07 138.205ZM3229.78 171.052C3237.31 183.571 3242.79 198.323 3245.87 215.704L3304.95 205.234C3300.74 181.469 3292.93 159.632 3281.19 140.121L3229.78 171.052ZM3463.68 485.469H3433.68V515.469H3463.68V485.469ZM3463.68 85.4688V55.4688H3433.68V85.4688H3463.68ZM3512.12 128.438V98.4378H3482.12V128.438H3512.12ZM3512.12 263.594H3482.12V293.594H3512.12V263.594ZM3690 279.5L3692.59 282V276.563L3690 279.5ZM3512.12 306.563V276.563H3482.12V306.563H3512.12ZM3512.12 442.5H3482.12V472.5H3512.12V442.5ZM3493.68 485.469V85.4688H3433.68V485.469H3493.68ZM3463.68 115.469H3707.5V86V55.4688H3463.68V115.469ZM3675.09 85.4688V128.438H3705.09V85.4688H3675.09ZM3707.5 98.4378H3512.12L3511.88 136.5L3705.09 128.438L3707.5 98.4378ZM3482.12 128.438V263.594H3508L3512.12 128.438H3482.12ZM3512.12 293.594H3692.59V276.563L3517.5 284L3512.12 293.594ZM3661 282L3662.59 306.563H3692.59V282H3661ZM3692.59 276.563H3512.12V314H3695L3692.59 276.563ZM3482.12 306.563V442.5H3512.12V306.563H3482.12ZM3512.12 472.5H3708.21L3705.09 455.469H3512.12V472.5ZM3675.09 455.469L3678.21 485.469L3709.86 485.984L3708.21 455.469H3675.09ZM3708.21 455.469H3463.68V515.469L3711.5 516.5L3708.21 455.469Z" fill="#3067DB"/>
<path d="M158.052 0.446533C325.719 0.446533 461.675 117.036 461.675 260.82C461.675 404.604 325.719 521.193 158.052 521.193H0.168701V474.326H158.052C295.582 474.326 407.023 378.759 407.023 260.82C407.023 142.88 295.582 47.3137 158.052 47.3137H0.168701V0.446533H158.052Z" fill="#3067DB"/>
<path d="M158.052 47.3137C295.582 47.3137 407.023 142.88 407.023 260.82C407.023 378.759 295.582 474.326 158.052 474.326H0.168701V427.459H158.052C265.388 427.459 352.371 352.866 352.371 260.82C352.371 168.773 265.332 94.1809 158.052 94.1809H0.168701V47.3137H158.052Z" fill="#3982E8"/>
<path d="M631.844 496H581.063L727.938 96.0001H777.938L924.813 496H874.031L754.5 159.281H751.375L631.844 496ZM650.594 339.75H855.281V382.719H650.594V339.75ZM1013.5 79.5H1070.5L1188.33 282.719H1193.02L1307 79.5H1358.5L1214.89 331.156V496H1166.45V331.156L1013.5 79.5ZM1532.07 496V96.0001H1771.91V138.969H1580.51V274.125H1753.94V317.094H1580.51V496H1532.07ZM2302.37 296C2302.37 338.188 2294.75 374.646 2279.52 405.375C2264.29 436.104 2243.39 459.802 2216.82 476.469C2190.26 493.135 2159.92 501.469 2125.81 501.469C2091.69 501.469 2061.36 493.135 2034.79 476.469C2008.23 459.802 1987.33 436.104 1972.1 405.375C1956.86 374.646 1949.25 338.188 1949.25 296C1949.25 253.812 1956.86 217.354 1972.1 186.625C1987.33 155.896 2008.23 132.198 2034.79 115.531C2061.36 98.8647 2091.69 90.5312 2125.81 90.5312C2159.92 90.5312 2190.26 98.8647 2216.82 115.531C2243.39 132.198 2264.29 155.896 2279.52 186.625C2294.75 217.354 2302.37 253.812 2302.37 296ZM2255.5 296C2255.5 261.365 2249.7 232.133 2238.11 208.305C2226.66 184.477 2211.1 166.443 2191.43 154.203C2171.9 141.964 2150.03 135.844 2125.81 135.844C2101.59 135.844 2079.65 141.964 2059.99 154.203C2040.46 166.443 2024.9 184.477 2013.31 208.305C2001.85 232.133 1996.12 261.365 1996.12 296C1996.12 330.635 2001.85 359.867 2013.31 383.695C2024.9 407.523 2040.46 425.557 2059.99 437.797C2079.65 450.036 2101.59 456.156 2125.81 456.156C2150.03 456.156 2171.9 450.036 2191.43 437.797C2211.1 425.557 2226.66 407.523 2238.11 383.695C2249.7 359.867 2255.5 330.635 2255.5 296ZM2493.82 496V96.0001H2628.97C2660.22 96.0001 2685.87 101.339 2705.93 112.016C2725.98 122.562 2740.82 137.081 2750.46 155.57C2760.09 174.06 2764.91 195.089 2764.91 218.656C2764.91 242.224 2760.09 263.122 2750.46 281.352C2740.82 299.581 2726.04 313.904 2706.12 324.32C2686.2 334.607 2660.74 339.75 2629.75 339.75H2520.38V296H2628.19C2649.55 296 2666.73 292.875 2679.75 286.625C2692.91 280.375 2702.41 271.521 2708.27 260.062C2714.26 248.474 2717.25 234.672 2717.25 218.656C2717.25 202.641 2714.26 188.643 2708.27 176.664C2702.28 164.685 2692.71 155.44 2679.56 148.93C2666.41 142.289 2649.02 138.969 2627.41 138.969H2542.25V496H2493.82ZM2682.1 316.312L2780.54 496H2724.29L2627.41 316.312H2682.1ZM3277.5 221H3253.28H3229.06C3226.2 207.068 3221.18 194.828 3214.02 184.281C3206.99 173.734 3198.4 164.88 3188.24 157.719C3178.21 150.427 3167.08 144.958 3154.84 141.312C3142.6 137.667 3129.84 135.844 3116.56 135.844C3092.34 135.844 3070.4 141.964 3050.74 154.203C3031.21 166.443 3015.65 184.477 3004.06 208.305C2992.6 232.133 2986.87 261.365 2986.87 296C2986.87 330.635 2992.6 359.867 3004.06 383.695C3015.65 407.523 3031.21 425.557 3050.74 437.797C3070.4 450.036 3092.34 456.156 3116.56 456.156C3129.84 456.156 3142.6 454.333 3154.84 450.688C3167.08 447.042 3178.21 441.638 3188.24 434.477C3198.4 427.185 3206.99 418.266 3214.02 407.719C3221.18 397.042 3226.2 384.802 3229.06 371H3277.5C3273.85 391.443 3267.21 409.737 3257.58 425.883C3247.94 442.029 3235.96 455.766 3221.64 467.094C3207.32 478.292 3191.24 486.82 3173.4 492.68C3155.69 498.539 3136.74 501.469 3116.56 501.469C3082.45 501.469 3052.11 493.135 3025.55 476.469C2998.98 459.802 2978.08 436.104 2962.85 405.375C2947.62 374.646 2940 338.188 2940 296C2940 253.812 2947.62 217.354 2962.85 186.625C2978.08 155.896 2998.98 132.198 3025.55 115.531C3052.11 98.8647 3082.45 90.5312 3116.56 90.5312C3136.74 90.5312 3155.69 93.461 3173.4 99.3204C3191.24 105.18 3207.32 113.773 3221.64 125.102C3235.96 136.299 3247.94 149.971 3257.58 166.117C3267.21 182.133 3273.85 200.427 3277.5 221ZM3465.77 496V96.0001H3707.18V138.969H3514.21V274.125H3694.68V317.094H3514.21V453.031H3710.3V496H3465.77Z" fill="#3982E8"/>
</svg>
