<svg width="3959" height="1227" viewBox="0 0 3959 1227" fill="none" xmlns="http://www.w3.org/2000/svg">
<path d="M282.883 348C450.55 348 586.506 464.589 586.506 608.373C586.506 752.157 450.55 868.746 282.883 868.746H125V821.879H282.883C420.413 821.879 531.854 726.312 531.854 608.373C531.854 490.433 420.413 394.867 282.883 394.867H125V348H282.883Z" fill="#3067DB"/>
<path d="M282.883 394.867C420.413 394.867 531.854 490.433 531.854 608.373C531.854 726.312 420.413 821.879 282.883 821.879H125V775.013H282.883C390.219 775.013 477.202 700.419 477.202 608.373C477.202 516.326 390.163 441.734 282.883 441.734H125V394.867H282.883Z" fill="#3982E8"/>
<path d="M755.703 845.415V873.444H776.687L783.707 854.791L755.703 845.415ZM705.401 845.415L677.505 835.753L662.831 873.444H705.401V845.415ZM850.89 471.692V443.663H830.145L822.994 462.031L850.89 471.692ZM900.418 471.692L928.314 462.031L921.163 443.663H900.418V471.692ZM1045.91 845.415V873.444H1088.48L1073.8 835.753L1045.91 845.415ZM995.605 845.415L967.6 854.791L974.621 873.444H995.605V845.415ZM877.202 530.816L905.207 521.439L898.187 502.787L879.673 499.721L877.202 530.816ZM874.106 530.816L877.202 493.374L853.121 502.787L846.102 521.439L874.106 530.816ZM774.276 699.429V671.4H744.559V699.429H774.276ZM977.032 699.429H1006.75V671.4H977.032V699.429ZM977.032 739.575V767.605H1006.75V739.575H977.032ZM774.276 739.575H744.559V767.605H774.276V739.575ZM755.703 817.385H705.401V873.444H755.703V817.385ZM733.296 855.076L878.785 481.354L822.994 462.031L677.505 835.753L733.296 855.076ZM850.89 499.721H875.654H900.418V443.663H850.89V499.721ZM872.522 481.354L1018.01 855.076L1073.8 835.753L928.314 462.031L872.522 481.354ZM1045.91 817.385H995.605V873.444H1045.91V817.385ZM1023.61 836.038L905.207 521.439L849.197 540.193L967.6 854.791L1023.61 836.038ZM879.673 499.721L877.202 493.374L874.106 530.816V558.845H877.202L879.673 499.721ZM846.102 521.439L727.697 836.038L783.707 854.791L902.111 540.193L846.102 521.439ZM774.276 727.458H977.032V671.4H774.276V727.458ZM947.315 699.429V739.575H1006.75V699.429H947.315ZM977.032 711.546H774.276V767.605H977.032V711.546ZM803.993 739.575V699.429H744.559V739.575H803.993ZM1142.1 471.692V443.663H1088.95L1116.78 486.369L1142.1 471.692ZM1197.05 471.692L1222.59 457.375L1213.95 443.663H1197.05V471.692ZM1306.94 646.145L1281.39 660.461L1290.03 674.174H1306.94V646.145ZM1311.58 646.145V674.174H1328.49L1337.13 660.461L1311.58 646.145ZM1421.47 471.692V443.663H1404.56L1395.92 457.375L1421.47 471.692ZM1476.41 471.692L1501.73 486.369L1529.56 443.663H1476.41V471.692ZM1333.25 691.4L1307.93 676.724L1303.53 683.475V691.4H1333.25ZM1333.25 845.415V873.444H1362.96V845.415H1333.25ZM1285.26 845.415H1255.55V873.444H1285.26V845.415ZM1285.26 691.4H1314.98V683.475L1310.58 676.724L1285.26 691.4ZM1142.1 499.721H1197.05V443.663H1142.1V499.721ZM1171.5 486.009L1281.39 660.461L1332.49 631.828L1222.59 457.375L1171.5 486.009ZM1306.94 674.174H1311.58V618.116H1306.94V674.174ZM1337.13 660.461L1447.01 486.009L1395.92 457.375L1286.03 631.828L1337.13 660.461ZM1421.47 499.721H1476.41V443.663H1421.47V499.721ZM1451.1 457.015L1307.93 676.724L1358.57 706.077L1501.73 486.369L1451.1 457.015ZM1303.53 691.4V845.415H1362.96V691.4H1303.53ZM1333.25 817.385H1285.26V873.444H1333.25V817.385ZM1314.98 845.415V691.4H1255.55V845.415H1314.98ZM1310.58 676.724L1167.42 457.015L1116.78 486.369L1259.95 706.077L1310.58 676.724ZM1647.44 845.415H1617.72V873.444H1647.44V845.415ZM1647.44 471.692V443.663H1617.72V471.692H1647.44ZM1885.01 471.692H1914.73V443.663H1885.01V471.692ZM1885.01 511.838V539.868H1914.73V511.838H1885.01ZM1695.42 511.838V483.809H1665.7V511.838H1695.42ZM1695.42 638.115H1665.7V666.145H1695.42V638.115ZM1867.21 638.115H1896.93V610.086H1867.21V638.115ZM1867.21 678.262V706.291H1896.93V678.262H1867.21ZM1695.42 678.262V650.232H1665.7V678.262H1695.42ZM1695.42 845.415V873.444H1725.14V845.415H1695.42ZM1677.15 845.415V471.692H1617.72V845.415H1677.15ZM1647.44 499.721H1885.01V443.663H1647.44V499.721ZM1855.3 471.692V511.838H1914.73V471.692H1855.3ZM1885.01 483.809H1695.42V539.868H1885.01V483.809ZM1665.7 511.838V638.115H1725.14V511.838H1665.7ZM1695.42 666.145H1867.21V610.086H1695.42V666.145ZM1837.5 638.115V678.262H1896.93V638.115H1837.5ZM1867.21 650.232H1695.42V706.291H1867.21V650.232ZM1665.7 678.262V845.415H1725.14V678.262H1665.7ZM1695.42 817.385H1647.44V873.444H1695.42V817.385ZM2346.81 576.619L2320.04 588.766L2320.07 588.822L2320.09 588.878L2346.81 576.619ZM2300.57 526.072L2284.79 549.823L2284.83 549.845L2284.87 549.866L2300.57 526.072ZM2170.37 526.072L2154.66 502.277L2154.63 502.298L2154.59 502.321L2170.37 526.072ZM2124.14 576.619L2097.41 564.36L2097.38 564.416L2097.35 564.472L2124.14 576.619ZM2124.14 740.487L2097.35 752.634L2097.38 752.69L2097.41 752.746L2124.14 740.487ZM2170.37 791.035L2154.59 814.786L2154.63 814.809L2154.66 814.83L2170.37 791.035ZM2300.57 791.035L2284.87 767.24L2284.83 767.262L2284.79 767.284L2300.57 791.035ZM2346.81 740.487L2320.09 728.229L2320.07 728.284L2320.04 728.34L2346.81 740.487ZM2380.75 658.553C2380.75 694.625 2373.85 724.241 2361.21 748.293L2414.46 773.193C2431.99 739.825 2440.18 701.314 2440.18 658.553H2380.75ZM2361.21 748.293C2348.32 772.818 2331.17 790.857 2309.94 803.424L2341.52 850.909C2372.92 832.332 2397.16 806.089 2414.46 773.193L2361.21 748.293ZM2309.94 803.424C2288.77 815.949 2264.29 822.495 2235.57 822.495V878.553C2274.44 878.553 2310.06 869.527 2341.52 850.909L2309.94 803.424ZM2235.57 822.495C2206.86 822.495 2182.37 815.949 2161.21 803.424L2129.62 850.909C2161.08 869.527 2196.7 878.553 2235.57 878.553V822.495ZM2161.21 803.424C2139.97 790.857 2122.83 772.818 2109.94 748.293L2056.69 773.193C2073.97 806.089 2098.23 832.332 2129.62 850.909L2161.21 803.424ZM2109.94 748.293C2097.29 724.241 2090.4 694.625 2090.4 658.553H2030.96C2030.96 701.314 2039.14 739.825 2056.69 773.193L2109.94 748.293ZM2090.4 658.553C2090.4 622.482 2097.29 592.866 2109.94 568.813L2056.69 543.914C2039.14 577.282 2030.96 615.793 2030.96 658.553H2090.4ZM2109.94 568.813C2122.83 544.289 2139.97 526.25 2161.21 513.683L2129.62 466.198C2098.23 484.774 2073.97 511.018 2056.69 543.914L2109.94 568.813ZM2161.21 513.683C2182.37 501.157 2206.86 494.612 2235.57 494.612V438.553C2196.7 438.553 2161.08 447.58 2129.62 466.198L2161.21 513.683ZM2235.57 494.612C2264.29 494.612 2288.77 501.157 2309.94 513.683L2341.52 466.198C2310.06 447.58 2274.44 438.553 2235.57 438.553V494.612ZM2309.94 513.683C2331.17 526.25 2348.32 544.289 2361.21 568.813L2414.46 543.914C2397.16 511.018 2372.92 484.774 2341.52 466.198L2309.94 513.683ZM2361.21 568.813C2373.85 592.866 2380.75 622.482 2380.75 658.553H2440.18C2440.18 615.793 2431.99 577.282 2414.46 543.914L2361.21 568.813ZM2393.76 658.553C2393.76 623.199 2387.5 591.429 2373.54 564.36L2320.09 588.878C2329.09 606.335 2334.32 629.187 2334.32 658.553H2393.76ZM2373.6 564.472C2360.16 538.11 2341.2 516.906 2316.28 502.277L2284.87 549.866C2298.91 558.108 2310.78 570.602 2320.04 588.766L2373.6 564.472ZM2316.35 502.321C2292.04 487.944 2264.84 480.889 2235.57 480.889V536.948C2254.28 536.948 2270.42 541.328 2284.79 549.823L2316.35 502.321ZM2235.57 480.889C2206.29 480.889 2179.08 487.944 2154.66 502.277L2186.08 549.866C2200.62 541.329 2216.87 536.948 2235.57 536.948V480.889ZM2154.59 502.321C2129.86 516.942 2110.95 538.097 2097.41 564.36L2150.86 588.878C2160.27 570.616 2172.2 558.072 2186.15 549.823L2154.59 502.321ZM2097.35 564.472C2083.57 591.51 2077.39 623.238 2077.39 658.553H2136.82C2136.82 629.148 2142 606.254 2150.92 588.766L2097.35 564.472ZM2077.39 658.553C2077.39 693.868 2083.57 725.596 2097.35 752.634L2150.92 728.34C2142 710.853 2136.82 687.959 2136.82 658.553H2077.39ZM2097.41 752.746C2110.95 779.01 2129.86 800.165 2154.59 814.786L2186.15 767.284C2172.2 759.034 2160.27 746.491 2150.86 728.229L2097.41 752.746ZM2154.66 814.83C2179.08 829.162 2206.29 836.217 2235.57 836.217V780.159C2216.87 780.159 2200.62 775.778 2186.08 767.24L2154.66 814.83ZM2235.57 836.217C2264.84 836.217 2292.04 829.162 2316.35 814.786L2284.79 767.284C2270.42 775.779 2254.28 780.159 2235.57 780.159V836.217ZM2316.28 814.83C2341.2 800.201 2360.16 778.997 2373.6 752.634L2320.04 728.34C2310.78 746.504 2298.91 758.999 2284.87 767.24L2316.28 814.83ZM2373.54 752.746C2387.5 725.678 2393.76 693.907 2393.76 658.553H2334.32C2334.32 687.92 2329.09 710.772 2320.09 728.229L2373.54 752.746ZM2600.11 845.415H2570.39V873.444H2600.11V845.415ZM2600.11 471.692V443.663H2570.39V471.692H2600.11ZM2810.22 486.656L2796.25 511.396L2796.31 511.429L2796.38 511.463L2810.22 486.656ZM2810.41 685.013L2824.05 709.919L2824.11 709.885L2824.18 709.851L2810.41 685.013ZM2626.42 699.429H2596.7V727.458H2626.42V699.429ZM2626.42 658.553V630.524H2596.7V658.553H2626.42ZM2784.29 649.794L2771.54 624.478L2771.48 624.502L2771.43 624.525L2784.29 649.794ZM2812.54 624.976L2786.14 612.107L2786.11 612.161L2786.08 612.216L2812.54 624.976ZM2784.1 521.145L2770.71 546.165L2770.81 546.215L2770.91 546.265L2784.1 521.145ZM2648.08 511.838V483.809H2618.37V511.838H2648.08ZM2648.08 845.415V873.444H2677.8V845.415H2648.08ZM2786.62 677.531L2812.68 664.065L2804.22 649.502H2786.62V677.531ZM2884.13 845.415V873.444H2934.29L2910.19 831.947L2884.13 845.415ZM2828.41 845.415L2802.25 858.716L2810.67 873.444H2828.41V845.415ZM2732.44 677.531V649.502H2682.66L2706.28 690.833L2732.44 677.531ZM2629.83 845.415V471.692H2570.39V845.415H2629.83ZM2600.11 499.721H2733.99V443.663H2600.11V499.721ZM2733.99 499.721C2761.81 499.721 2782 504.238 2796.25 511.396L2824.19 461.915C2798.71 449.123 2768.08 443.663 2733.99 443.663V499.721ZM2796.38 511.463C2811.38 518.902 2821.47 528.531 2827.97 540.302L2880.68 514.396C2868.1 491.618 2848.78 474.118 2824.05 461.849L2796.38 511.463ZM2827.97 540.302C2835.03 553.082 2838.93 568.187 2838.93 586.29H2898.36C2898.36 560.355 2892.7 536.166 2880.68 514.396L2827.97 540.302ZM2838.93 586.29C2838.93 604.403 2835.03 619.318 2828.05 631.769L2880.6 657.966C2892.71 636.353 2898.36 612.217 2898.36 586.29H2838.93ZM2828.05 631.769C2821.57 643.329 2811.55 652.823 2796.64 660.174L2824.18 709.851C2848.74 697.739 2867.99 680.468 2880.6 657.966L2828.05 631.769ZM2796.78 660.108C2782.55 667.034 2762.44 671.4 2734.76 671.4V727.458C2768.49 727.458 2798.8 722.214 2824.05 709.919L2796.78 660.108ZM2734.76 671.4H2626.42V727.458H2734.76V671.4ZM2656.14 699.429V658.553H2596.7V699.429H2656.14ZM2626.42 686.583H2733.21V630.524H2626.42V686.583ZM2733.21 686.583C2756.87 686.583 2778.79 683.377 2797.15 675.063L2771.43 624.525C2764 627.89 2751.88 630.524 2733.21 630.524V686.583ZM2797.05 675.11C2815.16 666.987 2829.82 654.649 2839 637.738L2786.08 612.216C2783.64 616.715 2779.47 620.922 2771.54 624.478L2797.05 675.11ZM2838.94 637.846C2847.5 622.235 2851.15 604.728 2851.15 586.29H2791.72C2791.72 597.781 2789.45 606.064 2786.14 612.107L2838.94 637.846ZM2851.15 586.29C2851.15 567.82 2847.48 550.297 2839.12 534.522L2785.96 559.592C2789.46 566.202 2791.72 574.834 2791.72 586.29H2851.15ZM2839.12 534.522C2830.01 517.343 2815.52 504.541 2797.28 496.025L2770.91 546.265C2778.73 549.913 2783.2 554.386 2785.96 559.592L2839.12 534.522ZM2797.49 496.124C2778.83 487.235 2756.49 483.809 2732.44 483.809V539.868C2751.21 539.868 2763.32 542.645 2770.71 546.165L2797.49 496.124ZM2732.44 483.809H2648.08V539.868H2732.44V483.809ZM2618.37 511.838V845.415H2677.8V511.838H2618.37ZM2648.08 817.385H2600.11V873.444H2648.08V817.385ZM2760.55 690.998L2858.05 858.882L2910.19 831.947L2812.68 664.065L2760.55 690.998ZM2884.13 817.385H2828.41V873.444H2884.13V817.385ZM2854.56 832.113L2758.6 664.23L2706.28 690.833L2802.25 858.716L2854.56 832.113ZM2732.44 705.561H2786.62V649.502H2732.44V705.561ZM3376.4 588.48V616.51H3411.84L3405.66 583.589L3376.4 588.48ZM3328.42 588.48L3299.31 594.126L3304.19 616.51H3328.42V588.48ZM3313.52 554.174L3288.79 569.721L3288.86 569.82L3288.93 569.919L3313.52 554.174ZM3287.98 529.357L3270.51 552.025L3270.67 552.145L3270.85 552.263L3287.98 529.357ZM3151.78 526.072L3136.08 502.277L3136.04 502.298L3136 502.321L3151.78 526.072ZM3105.54 576.619L3078.81 564.36L3078.78 564.416L3078.75 564.472L3105.54 576.619ZM3105.54 740.487L3078.75 752.634L3078.78 752.69L3078.81 752.746L3105.54 740.487ZM3151.78 791.035L3136 814.786L3136.04 814.809L3136.08 814.83L3151.78 791.035ZM3287.98 787.933L3305.26 810.742L3305.29 810.721L3305.31 810.701L3287.98 787.933ZM3313.52 762.933L3288.84 747.32L3288.81 747.353L3288.79 747.385L3313.52 762.933ZM3328.42 728.626V700.597H3304.24L3299.32 722.931L3328.42 728.626ZM3376.4 728.626L3405.65 733.547L3411.88 700.597H3376.4V728.626ZM3321.06 818.408L3339.37 840.489L3339.43 840.44L3339.5 840.392L3321.06 818.408ZM3273.28 842.313L3264 815.683L3263.97 815.692L3263.94 815.702L3273.28 842.313ZM3273.28 474.794L3263.94 501.405L3263.97 501.414L3264 501.424L3273.28 474.794ZM3321.06 498.882L3302.63 520.867L3302.69 520.915L3302.76 520.964L3321.06 498.882ZM3356.67 537.203L3331.15 551.567L3331.17 551.61L3331.2 551.653L3356.67 537.203ZM3376.4 560.451H3328.42V616.51H3376.4V560.451ZM3357.53 582.835C3353.99 566.622 3347.63 551.67 3338.1 538.429L3288.93 569.919C3293.59 576.386 3297.16 584.305 3299.31 594.126L3357.53 582.835ZM3338.24 538.626C3329.29 525.957 3318.22 515.171 3305.11 506.449L3270.85 552.263C3277.87 556.924 3283.82 562.683 3288.79 569.721L3338.24 538.626ZM3305.46 506.688C3292.72 497.95 3278.64 491.451 3263.38 487.165L3246.42 540.891C3255.41 543.418 3263.37 547.137 3270.51 552.025L3305.46 506.688ZM3263.38 487.165C3248.4 482.955 3232.89 480.889 3216.98 480.889V536.948C3227.38 536.948 3237.15 538.289 3246.42 540.891L3263.38 487.165ZM3216.98 480.889C3187.71 480.889 3160.48 487.944 3136.08 502.277L3167.48 549.866C3182.03 541.329 3198.27 536.948 3216.98 536.948V480.889ZM3136 502.321C3111.26 516.942 3092.35 538.097 3078.81 564.36L3132.26 588.878C3141.68 570.616 3153.6 558.072 3167.56 549.823L3136 502.321ZM3078.75 564.472C3064.97 591.51 3058.79 623.238 3058.79 658.553H3118.23C3118.23 629.148 3123.41 606.254 3132.32 588.766L3078.75 564.472ZM3058.79 658.553C3058.79 693.868 3064.97 725.596 3078.75 752.634L3132.32 728.34C3123.41 710.853 3118.23 687.959 3118.23 658.553H3058.79ZM3078.81 752.746C3092.35 779.01 3111.26 800.165 3136 814.786L3167.56 767.284C3153.6 759.034 3141.68 746.491 3132.26 728.229L3078.81 752.746ZM3136.08 814.83C3160.48 829.162 3187.71 836.217 3216.98 836.217V780.159C3198.27 780.159 3182.03 775.778 3167.48 767.24L3136.08 814.83ZM3216.98 836.217C3232.89 836.217 3248.4 834.152 3263.38 829.942L3246.42 776.216C3237.15 778.818 3227.38 780.159 3216.98 780.159V836.217ZM3263.38 829.942C3278.54 825.684 3292.56 819.298 3305.26 810.742L3270.7 765.125C3263.54 769.95 3255.51 773.662 3246.42 776.216L3263.38 829.942ZM3305.31 810.701C3318.32 801.894 3329.33 791.102 3338.24 778.481L3288.79 747.385C3283.78 754.472 3277.77 760.347 3270.64 765.164L3305.31 810.701ZM3338.2 778.546C3347.63 765.287 3353.97 750.418 3357.51 734.323L3299.32 722.931C3297.18 732.625 3293.6 740.627 3288.84 747.32L3338.2 778.546ZM3328.42 756.656H3376.4V700.597H3328.42V756.656ZM3347.14 723.705C3344.1 739.817 3338.67 753.652 3331.15 765.54L3382.18 794.268C3393.75 775.985 3401.48 755.634 3405.65 733.547L3347.14 723.705ZM3331.15 765.54C3323.39 777.789 3313.9 788.015 3302.63 796.423L3339.5 840.392C3356.61 827.632 3370.84 812.19 3382.18 794.268L3331.15 765.54ZM3302.76 796.326C3291.37 804.726 3278.52 811.187 3264 815.683L3282.55 868.942C3303.37 862.489 3322.38 853.013 3339.37 840.489L3302.76 796.326ZM3263.94 815.702C3249.64 820.163 3234.05 822.495 3216.98 822.495V878.553C3239.88 878.553 3261.82 875.411 3282.61 868.923L3263.94 815.702ZM3216.98 822.495C3188.26 822.495 3163.78 815.949 3142.61 803.424L3111.03 850.909C3142.49 869.527 3178.11 878.553 3216.98 878.553V822.495ZM3142.61 803.424C3121.38 790.857 3104.23 772.818 3091.34 748.293L3038.09 773.193C3055.39 806.089 3079.63 832.332 3111.03 850.909L3142.61 803.424ZM3091.34 748.293C3078.7 724.241 3071.8 694.625 3071.8 658.553H3012.37C3012.37 701.314 3020.56 739.825 3038.09 773.193L3091.34 748.293ZM3071.8 658.553C3071.8 622.482 3078.7 592.866 3091.34 568.813L3038.09 543.914C3020.56 577.282 3012.37 615.793 3012.37 658.553H3071.8ZM3091.34 568.813C3104.23 544.289 3121.38 526.25 3142.61 513.683L3111.03 466.198C3079.63 484.774 3055.39 511.018 3038.09 543.914L3091.34 568.813ZM3142.61 513.683C3163.78 501.157 3188.26 494.612 3216.98 494.612V438.553C3178.11 438.553 3142.49 447.58 3111.03 466.198L3142.61 513.683ZM3216.98 494.612C3234.05 494.612 3249.64 496.944 3263.94 501.405L3282.61 448.184C3261.82 441.696 3239.88 438.553 3216.98 438.553V494.612ZM3264 501.424C3278.45 505.899 3291.26 512.384 3302.63 520.867L3339.5 476.897C3322.49 464.212 3303.44 454.638 3282.55 448.165L3264 501.424ZM3302.76 520.964C3313.96 529.222 3323.41 539.349 3331.15 551.567L3382.18 522.839C3370.82 504.887 3356.55 489.466 3339.37 476.8L3302.76 520.964ZM3331.2 551.653C3338.66 563.349 3344.09 577.132 3347.14 593.372L3405.66 583.589C3401.49 561.386 3393.75 540.983 3382.12 522.754L3331.2 551.653ZM3562.89 845.415H3533.17V873.444H3562.89V845.415ZM3562.89 471.692V443.663H3533.17V471.692H3562.89ZM3802.02 471.692H3831.74V443.663H3802.02V471.692ZM3802.02 511.838V539.868H3831.74V511.838H3802.02ZM3610.87 511.838V483.809H3581.16V511.838H3610.87ZM3610.87 638.115H3581.16V666.145H3610.87V638.115ZM3789.64 638.115H3819.36V610.086H3789.64V638.115ZM3789.64 678.262V706.291H3819.36V678.262H3789.64ZM3610.87 678.262V650.232H3581.16V678.262H3610.87ZM3610.87 805.268H3581.16V833.298H3610.87V805.268ZM3805.11 805.268H3834.83V777.239H3805.11V805.268ZM3805.11 845.415V873.444H3834.83V845.415H3805.11ZM3592.61 845.415V471.692H3533.17V845.415H3592.61ZM3562.89 499.721H3802.02V443.663H3562.89V499.721ZM3772.31 471.692V511.838H3831.74V471.692H3772.31ZM3802.02 483.809H3610.87V539.868H3802.02V483.809ZM3581.16 511.838V638.115H3640.59V511.838H3581.16ZM3610.87 666.145H3789.64V610.086H3610.87V666.145ZM3759.92 638.115V678.262H3819.36V638.115H3759.92ZM3789.64 650.232H3610.87V706.291H3789.64V650.232ZM3581.16 678.262V805.268H3640.59V678.262H3581.16ZM3610.87 833.298H3805.11V777.239H3610.87V833.298ZM3775.4 805.268V845.415H3834.83V805.268H3775.4ZM3805.11 817.385H3562.89V873.444H3805.11V817.385Z" fill="#3067DB"/>
</svg>
